<?xml version="1.0" encoding="utf-8"?>
<!-- Generator: Adobe Illustrator 19.1.1, SVG Export Plug-In . SVG Version: 6.00 Build 0)  -->
<svg version="1.1" id="Calque_1" xmlns="http://www.w3.org/2000/svg" xmlns:xlink="http://www.w3.org/1999/xlink" x="0px" y="0px"
	 viewBox="0 0 624.1 621.1" style="enable-background:new 0 0 624.1 621.1;" xml:space="preserve">
<style type="text/css">
	.st0{fill:#FFFFFF;}
</style>
<path class="st0" d="M544.8,248.8c-2.1,2.5-4.1,5.1-6.2,7.6c0.6-4,2.3-7.6,3.7-11.3c5.5-14.4,10.2-29.1,13.1-44.3
	c4.3-22.3,4.2-44.5-2.3-66.5c0-0.2-0.2-0.3-0.3-0.4c-1.8-7.5-4.7-14.7-8.5-21.5c0.4-0.4,0.3-0.8-0.1-1.1l0,0.1
	c-0.1-1.3-1-2.4-0.8-3.9c0.5,0.3,0.9,0.5,1.3,0.8c7.6,6.2,14.1,13.3,19.3,21.5c5.9,9.4,9.8,19.6,12.7,30.2c0.4,1.3,0.5,2.7,1.5,4.1
	c3.9-22.4,2.1-44.2-3.5-65.8c0.2-0.1,0.5-0.1,0.7-0.2c1,1.9,2.1,3.7,3.1,5.6c1.1,2,2.1,3.9,3.1,5.9c4.3,7.9,7.6,16.2,11,24.5
	c0.7,1.9,1.3,3.9,2,5.8c2,5.7,3.4,11.6,5.1,17.5l0,0c0.2,2.5,0.5,5,0.7,8c0.4-1.4,0.7-2.2,0.8-3.1c0.7-4.2,0.5-8.5,0.6-12.8
	c0.1-1.4-0.7-3.2,1.1-4.2c0.3-0.1,0.3-0.5,0-0.6c-2.1-1.2-0.8-3.1-1.2-4.7c0.4-3.6-0.5-7.2-0.5-11.2c2.3,2.2,3.2,4.6,4.4,6.9
	c2.9,5.9,5.3,12.1,7.2,18.4c0.1,0.4,0.5,0.8,0.7,1.3c-3.3,16.7-9.6,32.2-18.4,46.8c-0.2,0.3-0.3,0.7-0.5,1.1
	c-0.9,0.7-1.3,1.7-1.8,2.7c-0.1,0.2-0.2,0.4-0.3,0.6c-3,4.1-6,8.3-9,12.4c-4.4,4.7-8.4,9.8-13.1,14.3c-0.7,0.6-1.3,1.3-1.9,1.9
	c-3.2,2.3-5.6,5.5-9.7,7.9c2.2-8.6,4.6-16.5,5.8-24.6c1.2-3.4,1.2-7,1.5-10.5c-0.9,2.3-1.8,4.7-2.6,7c-2.5,5.7-5.3,11.3-8.3,16.8
	C552.2,237.8,548.3,243.2,544.8,248.8L544.8,248.8z"/>
<path class="st0" d="M60.8,270.1c2.3,6.6,5.3,12.8,8.2,19.2c-16.7-12.8-29.4-28.8-39.5-46.9c-5.3-10.2-9.7-20.7-12.9-31.8
	c-1.2-4.3-2.2-8.6-2.9-12.9c0.2-1.9,0.5-3.7,0.6-5.6c0.6-9.7,2.5-19.3,3.9-28.9c0.5-3.3,0.4-6.9,2.4-10.1c0.7-1.2,0.9-2.8,2-3.9
	c0,0,0-0.1,0-0.1c-0.6,9.5,1.2,18.7,2.8,28.4c1-1.5,1-2.7,1.3-3.9c0.6-2.2,1.1-4.4,1.7-6.6c1.2-4.1,2.4-8.1,4.1-12
	c1.7-4,3.4-8,4.9-12.1c1-2.7,3-4.9,3.4-7.8l0,0c2.1-3,3.5-6.3,5.1-9.5c1-2.1,3-3.7,3-6.3c1.1-0.3,0.9-1.7,2.2-2.3
	c-0.2,2-0.3,3.8-0.6,5.7c-1.5,9.6-3.3,19.3-2.6,29.1c0.4,5.1,0.6,10.2,1.5,15.3c0.7,4.2,1.9,8.3,2.5,12.5c0.2,1.6,0.1,4.6,0.6,4.4
	c1.9-0.6,1-2.8,1.1-4.4c1.1-10.6,5.2-20.1,10.7-29c0.7-1.2,1.3-2.4,2-3.6c0.5-1.3,2.3-1.4,2.5-3c0-0.2,0.1-0.5,0.1-0.7
	c0.7,0.3,1.2-0.3,1.8-0.3c-0.1,0.5-0.3,0.9-0.4,1.4C66,156,63,167.9,61.7,180.2c-1.4,12.4-1.3,24.7,0,37.1
	c1.6,14.3,4.8,28.3,9.8,41.8c2.8,8.8,6.9,17.1,10.9,25.3c2.6,5.3,6,10.3,9,16.2c-4.1-3.4-7.4-6.6-10.5-10
	c-7.8-8.6-14.6-17.9-20-28.2c-0.3-0.6-0.8-1.2-1.2-1.8c-1-2.7-2.3-5.2-4.2-7.4C57,259,58.4,264.7,60.8,270.1z"/>
<path class="st0" d="M428.6,53.1c2.6-6.7,9.3-7.6,14.7-10.1c2.3-1.1,3.9,1.1,5.9,1.2c2.1,2.6,4.3,5.1,6.4,7.8
	c5.6,7.2,11.1,14.4,16.7,21.7l0.1,0.1c0.1,0.2,0.2,0.3,0.4,0.5c1,1.6,2,3.2,3.4,4.5c0.6,1.3,1.4,2.5,2.6,3.4
	c0.1,0.2,0.1,0.3,0.2,0.5c0.1,0.1,0.2,0.2,0.3,0.3c0,0.2,0.1,0.4,0.1,0.5c0,0.2-0.1,0.5-0.1,0.7c1.2,9.3-4.7,16.2-14,16.2
	c-0.1,0-0.2,0-0.2,0c-2.1,0.1-3.5-1.3-4.8-2.6c-1.8-2-3.6-4-5.4-6c0-0.1-0.1-0.3-0.2-0.3c-0.1-0.5-0.4-0.8-0.9-1
	c-0.3-0.4-0.6-0.7-0.8-1.1c-0.2-0.6-0.5-1.1-1.2-1.3c-0.2-0.2-0.3-0.4-0.5-0.6c-0.1-0.2-0.3-0.4-0.4-0.6c0,0,0-0.1,0-0.1
	c-0.4-0.8-0.8-1.5-1.7-1.7c-0.1-0.2-0.2-0.4-0.3-0.6c-0.4-1.2-1.2-2.1-2.2-2.8l0-0.1c-0.1-0.4-0.3-0.7-0.8-0.7c0,0,0.1,0,0.1,0
	c-0.3-1.3-1.1-2.1-2.1-2.9c0,0,0,0,0,0c-0.1-0.7-0.5-1.1-1.1-1.4c-3.7-5.1-7.4-10.2-11.2-15.2C429.8,59,428.6,56.2,428.6,53.1z"/>
<path class="st0" d="M408.8,490.3c3.4,3,6.7,6,8.6,10.3c1.1,2.5,1.8,5.1,1.7,7.8c-0.2,5.1-2.5,8.7-7.4,10.6
	c-0.8,0.3-1.6,0.8-2.5,1.2c-4.6,0.7-9.2,0.8-13.7-1c-0.5-0.2-1.2-0.4-1.6,0.1c-0.5,0.7-0.1,1.2,0.4,1.7c1,1.1,2.1,2.1,3.4,2.8
	c0.2,0.6,0.7,0.7,1.2,0.5c0.2,0,0.4,0,0.7,0c0.3,1.2,1.3,1.9,2.3,2.4c3.5,1.6,7,3.1,11,2.6c1.4-0.2,1.7,0.6,0.9,1.6
	c-3.2,4-6.8,7.6-11.4,10.1c-0.5,0.3-1,0.8-1.6,0.3c-0.6-0.5-0.1-1.1,0.1-1.6c0.7-1.9,0.4-3.8-0.3-5.6c-1.7-4.5-4.6-8.3-7.8-11.9
	c-0.5-0.6-1-1.5-2-0.9c-0.9,0.6-0.5,1.5-0.3,2.3c0.9,3.3,1.2,6.7,0.4,10c-1.9,7.7-7.7,11.4-15.5,10c-8.3-1.5-15.5-9-16.2-16.9
	c-0.4-4.4,1.7-7.9,5.7-9.8c2.5-1.2,5.2-1.9,8-2.5c-0.8-1.2-1.7-0.7-2.4-0.7c-2.8,0-5.3-0.7-7.5-2.3c-5.3-3.8-6.8-8.9-3.9-14.7
	c2.9-5.8,7.7-9.8,13.7-12.4c3.5-1.5,6.8-1,9.9,1c4.6,4,6.1,9.6,7.3,15.4c0.9-0.6,1-1,1.1-1.6c1.2-9.4,6.5-12.8,15.6-10c0,0,0,0,0,0
	C407.3,489.8,408,490.1,408.8,490.3z"/>
<path class="st0" d="M244.7,541.5c-3,2.1-6.1,4-9.8,4.4c-8.7,1.1-13.4-3.6-14.9-12.2c-0.6-3.1-0.5-6.2,0.4-9.3
	c0.2-0.7,0.6-1.8-0.5-2.2c-0.8-0.3-1.3,0.5-1.8,1.1c-4.2,5.4-7.4,11-6.6,18.3c0.3,2.9-1.6,0.6-2.4,0.8c-1.9-1.6-3.8-3.2-5.6-4.9
	c-1.6-1.4-3.1-3-4.3-4.8c-0.4-0.6-1.1-1.3-0.6-2c0.4-0.7,1.2-0.1,1.8,0c3,0.5,5.6-0.7,8-2.2c3.3-2.1,6.3-4.6,9-7.4
	c0.5-0.6,1.4-1.2,0.8-2.1c-0.5-0.6-1.4-0.2-2.1,0c-3.7,1.3-7.5,2-11.5,1.1c-7.6-1.6-11.7-7.6-10.2-15.2c1.4-7.1,5.4-12.3,12-15.3
	c6.2-2.9,11.7-1,14.8,5.1c1,1.9,1.6,4,2.5,6.1c0.8-0.3,0.7-0.9,0.6-1.3c-0.8-5.5,1.3-9.9,5.8-12.7c4.7-3,9.5-1.6,13.9,1.1
	c3.5,2.1,6.3,5,8.9,8.1c0,0,0,0,0,0c-0.1,0.6,0.3,0.9,0.5,1.3c3,5,2.4,9.6-1.9,13.6c-1.1,1.1-2.5,1.9-3.7,2.8c-0.5,0.3-1,0.6-1.5,1
	c-2.6,0.5-5.1,1.2-7.3,2.6c3,0.5,5.9,0.7,8.5,2.2c5.5,4.1,6.5,8.7,3.1,14.7C249,537.1,246.9,539.3,244.7,541.5z"/>
<path class="st0" d="M301.9,420.7c0.5-0.2,1-0.6,1.4-0.5c5.8,1.2,11.3-0.8,16.9-1.8c0.7-0.1,1.5-0.5,2,0.4c0.5,6,0.7,12,1.7,17.9
	c0.3,1.5-0.1,2.3-1.9,2.7c-5.3,1.1-10.5,2.5-15.8,3.7c-0.7,0.2-1.7,0.8-1.8-0.7C303.5,435.2,302.7,428,301.9,420.7z"/>
<path class="st0" d="M329.7,416.5c5-2,10.2-3.2,15.3-4.8c0.6-0.2,0.9,0.3,1.4,0.2c1.5,5.8,3,11.5,5.7,16.9c0.3,0.6,0.4,1.2-0.4,1.4
	c-7.1,2.1-14,4.9-21.3,6.3c0.2-4.6,0.1-9.1-0.4-13.7C329.8,420.7,329.8,418.6,329.7,416.5z"/>
<path class="st0" d="M274.3,415.9c2-1.7,3.8,0.1,5.6,0.4c3.9,0.7,7.8,1.8,11.7,2.8c-0.9,7-1.8,14-2.8,21.2c-5.8-2.1-11.3-4-16.8-6
	c-0.7-0.2-1-0.6-0.8-1.5C272.2,427.1,273.2,421.5,274.3,415.9z"/>
<path class="st0" d="M349.3,461.4c-0.6,3.3-3.7,3.2-5.9,3.9c-3.4,1-7,1-10.4,1.9c-1.2,0.3-2.5,0.2-3.6-0.3
	c2.7-6.3,3.4-13.3,6.2-19.7c0.7-1.5,1.3-2.4,3.2-2.4c2.3,0,4.6-0.3,6.9-0.6c1.6-0.2,2,0.4,1.7,2c-0.8,4-1.2,8-0.9,12
	C346.7,459.7,346.4,462,349.3,461.4z"/>
<path class="st0" d="M251.7,409c5.2,1,10.3,2.6,15.3,4.5c-1.7,6-3.4,12-5.1,18c-0.4,1.4-0.9,1.3-1.9,0.6c-3.6-2.5-7.2-5-10.8-7.5
	c-0.9-0.6-1.1-1.3-0.9-2.3C249.5,417.9,250.6,413.5,251.7,409z"/>
<path class="st0" d="M326,467.2c-5,0-10.1,0.7-15.1-0.6c1.1-5.6,2.2-11.1,2.4-16.8c0-1.1,0.6-1.4,1.5-1.6c3.6-0.6,7.2-1.1,10.8-1.7
	c1.4-0.2,1.6,0.4,1.6,1.5C326.9,454.4,326.5,460.8,326,467.2z"/>
<path class="st0" d="M267.7,462.3c-1.8-0.2-3.4-0.7-4.8-1.8c-4.5-3.5-8.9-7-13.3-10.5c-0.4-0.3-0.7-0.9-1.1-1.3c-0.4-3,0-5.9,0-8.8
	c0-1.2,0.4-1.7,1.6-1.1c4.4,2.1,9,3.7,13.7,5c1.3,0.4,1.3,1.4,1.4,2.3C265.5,451.5,266.3,456.9,267.7,462.3z"/>
<path class="st0" d="M304.7,466.5c-5-0.3-10.1,0.5-15.2-0.2c0.9-5.3,2.2-10.5,2.3-15.8c0-0.8,0.4-1.4,1.3-1.4
	c3.7-0.1,7.3-0.3,11-0.4c1.5-0.1,1.3,1,1.2,1.9C305.1,455.8,304.9,461.2,304.7,466.5z"/>
<path class="st0" d="M364.8,445.3c-1.4,0.4-1.9,1.7-2.7,2.7c-3.1,3.6-6.7,6.9-9.4,10.8c-0.6,0.8-1.5,1-2.4,1.2
	c1.2-4.7,1.8-9.5,2.1-14.4c0-0.6,0.2-1.2,0.5-1.6c3.5-4.3,7-8.5,10.9-13.1C364.9,436,364.8,440.7,364.8,445.3z"/>
<path class="st0" d="M355,408.2c3.5-1.6,7.1-2.7,10.4-4.7c0.6-0.4,1.6-0.3,2.4-0.4c0.9,2.2,2,4.3,2.8,6.5c1,2.9-2.2,7.9-5.2,8.5
	c-1.9,0.4-3.9,0.7-5.9,1.1c-1.4,0.3-2.1,0-2.4-1.5C356.6,414.6,355.8,411.4,355,408.2z"/>
<path class="st0" d="M223.3,395.2c2.6,1.4,5,3.1,7.7,4.2c-0.1,4.1-1.2,8.1-0.5,12.2c0.5,3,1.7,5.4,4.2,7.2c0.9,0.7,1.8,1.5,2.7,2.2
	c3.1,2.4,5.3,5.1,4.3,9.4c-0.1,0.5,0,1.1,0.1,1.7c-0.9,2,0,4.2-0.7,6.2c-4-7.1-7.6-14.5-10.8-22c-2.1-4.8-4.2-9.7-5.5-14.8
	c-0.3-1.2-0.8-1.6-1.8-1.6c0,0-0.2,0.1-0.2,0.1c0-0.3,0-0.5,0-0.8C223,397.9,223.1,396.6,223.3,395.2z"/>
<path class="st0" d="M285.8,466.3c-2.6,0.5-4.8-0.8-7.2-1.2c-2.6-0.4-5.1-1.2-7.6-1.8c0.9-6.8,5.2-11.9,9.7-17.5
	C281.8,453.1,283.4,459.8,285.8,466.3z"/>
<path class="st0" d="M388.8,395.2c-3.9,2.6-5.2,7-7,10.9c-3.1,6.8-5.4,13.8-8,20.8c-1,2.8-1.8,5.7-4.1,7.8c0-3.4-0.1-6.7-0.1-10.1
	c0-0.7,0.4-1.2,0.8-1.7c1.1-1.5,2.2-3.1,3.3-4.6c4.7-6.5,6.9-13.7,6.1-21.8c0.3-0.1,0.7-0.2,1-0.3c2.7-0.3,4.5-2.5,7-3.2
	c0.3-0.1,0.6-0.2,0.8-0.3C388.7,393.5,388.7,394.4,388.8,395.2z"/>
<path class="st0" d="M236.8,402.1c3.4,1.3,6.4,3.4,10,4.1c-0.7,2.5-1.4,4.9-2,7.4c-0.4,1.4-0.9,2-2.3,0.9c-1.7-1.4-3.6-2.7-5.4-4
	c-1.3-1-1.5-2.3-1.2-3.8C236.2,405.1,236.5,403.6,236.8,402.1z"/>
<path class="st0" d="M155.2,92.2c-2.6-0.6-5.3-1.2-7.7-2.5c-4-2.2-6.3-8-4.6-12.2c0.2-0.6,0.8-1.1,0.7-1.8
	c3.8-5.2,8.6-9.5,12.5-14.6c3.2-4.2,6.9-8,10.6-11.7c4-3.9,7.8-8,12.2-11.4c0.7-0.5,1.7-0.6,2.6-0.8c4.1-0.5,7.3,1,9.5,4.4
	c2,3.2,4.4,6,5.8,9.6c-1.1,4.6-4.5,7.7-7.4,10.9c-6.4,7-13.1,13.6-19.6,20.6c-2.9,3.1-5.9,6.1-9,9c-1,0.1-2-0.2-2.9,0.6
	c-0.4,0-0.7,0.1-1.1,0.1c-0.2,0.1-0.4,0.1-0.6,0.2C155.8,92.3,155.5,92.2,155.2,92.2z"/>
<path class="st0" d="M355.6,535.5c-1.1-2.6-3.9-3.9-5.2-6.2c-2.4-4.5-6.4-6.4-11-7.4c-1.8-0.4-3.3-0.8-4.6-2
	c-10.1-0.6-20.5,5.3-24.8,14.2c-0.5,1-1.1,1.7-2.2,2c0.4-5.1,0.9-10.2,2.3-15.1c1.6-5.6,3.3-11.1,9.5-13.5c1.5-0.6,0.8-1.3-0.2-1.8
	c-2.1-1.1-4.5-1.1-6.7-1.7c-5.3-0.6-10.7-0.5-16-0.1c-1.5,0.3-3.1,0.5-4.6,0.8c-0.6,0.1-1.2,0.4-1.3,1c-0.1,0.6,0.4,1.1,0.9,1.3
	c2.3,1.2,3.7,3.2,5.4,5c0.6,0,1.1,0,1.5,0.6c3.7,6.6,6.6,13.5,6.1,21.3c0,0.7,0.3,1.7-0.6,1.9c-0.9,0.2-1.7-0.2-2.4-1.2
	c-3.3-4.8-7.1-8.9-12.8-11.2c-4.3-1.7-8.5-1.7-13-1.5c-2.9,0.1-5.8,0-7.7,3.1c-0.5,0.9-2-0.3-3.1-0.2c-3.7,2.1-6.1,5.5-8.4,9l0,0
	c-3.6,7.1-4.9,14.7-4.3,22.5c0.3,4,1.9,7.7,3.9,11.1c2.7,3.7,6.1,6.8,9.4,9.9c10.3,6.5,21.1,12.3,29.8,21c0.4,0.4,0.7,0.9,1.1,1.3
	l0.1,0c0.5,0.3,0.9,0.7,1.2,1.2l0,0c0.2,0.2,0.3,0.4,0.5,0.6c0,0,0,0,0,0c2.6,2.1,4.3,4.9,6.4,7.5c2.1,0.1,3.2-1.4,3.8-2.9
	c0.6-1.6,1-3,3-3.5c0.6-0.1,1-0.8,1.2-1.5c0.3-1,1-1,1.7-0.5c0.2,0,0.2-0.1,0.2-0.2c-0.2-0.3-0.8-0.6-0.3-0.9
	c0.3-0.2,0.9-0.2,1.4-0.2l0,0c-0.5-2,1-3,2.4-3.6c0.8-0.4,1.6-0.8,2.2-1.5c2.8-2.7,5.7-5.2,9.3-6.8c1.6-0.7,3.1-1.9,4.5-2.9
	c0.7-0.5,1.3-0.6,2-0.5c3.9-1.4,7.2-3.9,10.5-6.3c14.9-10.8,16.4-26.2,9.9-41.7C356.3,535.6,355.6,535.7,355.6,535.5z"/>
<path class="st0" d="M362,448c-3.1,3.6-6.7,6.9-9.4,10.8c-0.6,0.8-1.5,1-2.4,1.2c-0.3,0.4-0.6,0.9-0.9,1.3c-0.6,3.3-3.7,3.2-5.9,3.9
	c-3.4,1-7,1-10.4,1.9c-1.2,0.3-2.5,0.2-3.6-0.3c-1.3,2-1.7,4.5-3.4,6.6c-0.5-2.2,0.5-4.2,0.1-6.2c-5,0-10.1,0.7-15.1-0.6
	c-0.2,0.4-0.5,0.9-0.6,1.3c-0.6,2-1.5,3.9-3.2,5.1c-1.1,0.8-2.5,1.3-2.6-1c0-1.9,0-3.8,0.1-5.6c-5-0.3-10.1,0.5-15.2-0.2
	c-0.5,1.1-0.4,2.5-1.5,3.5c-0.8-1.3-1.5-2.4-2.3-3.6c-2.6,0.5-4.8-0.8-7.2-1.2c-2.6-0.4-5.1-1.2-7.6-1.8c0,0.8,0.1,1.7,0.1,2.7
	c-2.1-0.5-2.4-2.4-3.3-3.7c-1.8-0.2-3.4-0.7-4.8-1.8c-4.5-3.5-8.9-7-13.3-10.5c-0.4-0.3-0.7-0.9-1.1-1.3c0,3.8,0.1,7.6,0.1,11.4
	c0.9,9.6,2,19.2,7.3,27.6c0.5,0.4,0.8,0.9,1,1.5c2.2,2.7,4.6,5.4,6.6,8.3c1.2,1.6,2.5,1.8,4.3,1.7c5.2-0.5,10.4-0.8,15.6-1.2
	c0.5,0,1,0.1,1.5,0.2c0.8-0.5,1.8-0.4,2.7-0.4c4.1-0.3,8.2-0.6,12.3-0.9c15.6-0.3,31.3-0.3,46.9-0.1c1-0.3,1.3-1.2,1.7-2
	c2.8-5.3,5.6-10.6,8.2-16c5.2-10.5,9.5-21.2,8.1-33.3C363.4,445.7,362.9,447,362,448z"/>
<path class="st0" d="M388.8,395.2c-3.9,2.6-5.2,7-7,10.9c-3.1,6.8-5.4,13.8-8,20.8c-1,2.8-1.8,5.7-4.1,7.8
	c-0.4,5.5-0.1,11.1-0.9,16.8c1.8-1.5,2.7-3.2,3.4-5c2.4-6.8,5.3-13.4,9.2-19.6c2.8-4.5,5.9-8.9,7.9-13.9c0-4.3-0.1-8.6-0.2-12.9
	C389.1,398.4,388.9,396.8,388.8,395.2z"/>
<path class="st0" d="M540.3,100.6c-0.5,0.1-1.1,0.2-0.9,0.9c0.1,0.4,0.6,0.9,1,0.9c0.7,0.1,0.7-0.6,0.9-1.1
	C541.2,100.8,540.9,100.5,540.3,100.6z"/>
<path class="st0" d="M16.7,114.3c-2.6,10.5-4.5,21-5.4,31.8c0,0.5,0.1,1-0.4,1.3l0,0c-0.2,4.9-0.4,9.8-0.5,14.6
	c-0.1,7.9,0.2,15.7,1.4,23.5c0.9-0.2,0.8-0.8,0.6-1.5c-0.7-2.2-0.5-4.5-0.6-6.8c0-2.2,0.3-4.3-0.8-6.5c-0.5-1-0.3-2.4,0.3-3.5l0,0
	c0.1-0.3,0.2-0.5,0.3-0.8c0,0-0.1-0.1-0.2-0.1c-0.1,0.3-0.1,0.6-0.2,0.9c-0.5-0.5-0.6-1.2-0.4-1.8c1.9-5.7,0.5-11.6,1-17.4
	c-0.4-1.5,0.8-2.7,0.9-4c0.3-5.3,0.8-10.5,2.4-15.6c0.8-2.3,0.2-4.7,0.8-7c1.2-4.5,2.9-8.8,3.7-13.4c0.4-2.3,1.6-4.5,1.2-6.9
	C19,105.3,18.3,109.9,16.7,114.3z"/>
<path class="st0" d="M25.6,108.5c-0.3-0.3-0.7-0.6-1.1-0.2c-0.3,0.4-0.2,0.8,0.2,1.1c0.8,0.6,1.6,1.2,2.4,1.9
	C27.4,109.8,26.3,109.3,25.6,108.5z"/>
<path class="st0" d="M232.5,376.3c-1.2,0.3-2.4,0.6-3.6,0.8c-0.4,0.1-0.7,0.2-1.1,0.3c-1.1,1-2.5,1-3.8,1.5
	c-0.1,1.3-0.2,2.6-0.3,3.9c-0.1,4.1-0.3,8.3-0.4,12.4c2.6,1.4,5,3.1,7.7,4.2c0.2-1.3,0.3-2.6,0.5-3.9c1-5.8,2.1-11.6,3.1-17.5
	C235.1,375.7,235,375.6,232.5,376.3z"/>
<path class="st0" d="M443,311.4C443,311.4,443,311.3,443,311.4C443,311.3,443,311.3,443,311.4L443,311.4z"/>
<path class="st0" d="M443,311.3C443,311.3,442.9,311.3,443,311.3C443,311.4,443,311.4,443,311.3C443,311.4,443,311.3,443,311.3z"/>
<path class="st0" d="M442.5,311.4c0.1,0,0.3,0,0.4,0C442.8,311.2,442.7,310.9,442.5,311.4z"/>
<path class="st0" d="M143.6,75.6c3.8-5.2,8.6-9.5,12.5-14.6c3.2-4.2,6.9-8,10.6-11.7c4-3.9,7.8-8,12.2-11.4c0.7-0.5,1.7-0.6,2.6-0.8
	c-2.4-6.3-6-11.8-10.9-16.6c-2.8-2.8-5.8-5.2-9.2-7.2c-0.6-0.3-1.1-0.2-1.6-0.4c-0.9-0.2-1.9-0.4-2.8-0.7c0.9,0.3,1.8,0.5,2.8,0.7
	c0-0.9-0.9-0.9-1.3-1.4c-1.9-0.8-3.8-1.7-5.7-2.5c-2.8-0.7-5.6-1.5-8.4-2c-9.6-1.9-19.2-1.3-28.8-0.3c-8.6,0.9-17.2,2.1-25.5,4.7
	c-0.9,1.1-2.3,0.5-3.4,0.9C78,15,69.8,18.6,62.5,24c-4.6,3.3-8.9,6.9-12.2,11.6c-0.5,0.5-1,0.9-1.5,1.4C38.1,51,32.1,67.2,26.4,83.5
	c-0.2,0.5-0.4,0.9-0.6,1.4c-1.7,5.4-3.3,10.7-5,16.1c0.5,2.5-0.8,4.6-1.2,6.9c-0.7,4.6-2.5,9-3.7,13.4c-0.6,2.3-0.1,4.7-0.8,7
	c-1.6,5-2.1,10.3-2.4,15.6c-0.1,1.3-1.3,2.5-0.9,4h0c-0.5,5.8,0.9,11.7-1,17.4c-0.2,0.6,0,1.3,0.4,1.8c0.1-0.3,0.1-0.6,0.2-0.9
	c0.1,0,0.2,0.1,0.2,0.1c-0.1,0.3-0.2,0.5-0.3,0.8c-0.6,1.1-0.9,2.5-0.3,3.5c1.1,2.1,0.8,4.3,0.8,6.5c0.1,2.3-0.1,4.6,0.6,6.8
	c0.2,0.7,0.3,1.3-0.6,1.5c0.3,4.1,0.9,8.2,2,12.1c0.2-1.9,0.5-3.7,0.6-5.6c0.6-9.7,2.5-19.3,3.9-28.9c0.5-3.3,0.4-6.9,2.4-10.1
	c0.7-1.2,0.9-2.7,2-3.8c-0.6,9.4,1.2,18.6,2.9,28.3c1-1.5,1-2.7,1.3-3.9c0.6-2.2,1.1-4.4,1.7-6.6c1.2-4.1,2.4-8.1,4.1-12
	c1.7-4,3.4-8,4.9-12.1c1-2.7,3-4.9,3.4-7.8c0,0,0,0,0,0v0c2.1-3,3.5-6.3,5.1-9.5c1-2.1,3-3.7,3-6.3c1.1-0.3,0.9-1.7,2.2-2.3
	c-0.2,2-0.3,3.8-0.6,5.7c-1.5,9.6-3.3,19.3-2.6,29.1c0.4,5.1,0.6,10.2,1.5,15.3c0.7,4.2,1.9,8.3,2.5,12.5h0c0.2,1.6,0.1,4.6,0.6,4.4
	c1.9-0.6,1-2.8,1.1-4.4c1.1-10.6,5.2-20.1,10.7-29c0.7-1.2,1.3-2.4,2-3.6h0c0.5-1.3,2.3-1.4,2.5-3c0-0.2,0.1-0.5,0.1-0.7
	c0,0,0,0,0,0c0.7,0.3,1.2-0.3,1.8-0.3c0.2-0.3,0.3-0.7,0.5-1c1.1-3.4,2.9-6.4,4.2-9.7c3-6.4,7.4-11.8,11.9-17.2
	c5.5-6.7,11.4-13,17.7-18.8c1.1-1.2,2.3-2.4,3.7-3.3c8.6-7.6,17.7-14.5,29.4-17C139.9,75.6,141.8,75.7,143.6,75.6z M27.2,111.3
	c-0.9-0.7-1.7-1.3-2.4-1.9c-0.3-0.3-0.5-0.7-0.2-1.1c0.4-0.4,0.8-0.1,1.1,0.2C26.3,109.3,27.4,109.8,27.2,111.3z M66.9,136.8
	c0-0.1,0.1-0.1,0.1-0.2c-0.1-0.1-0.2-0.2-0.3-0.2c0.1,0.1,0.2,0.2,0.3,0.2C67,136.6,66.9,136.7,66.9,136.8z M69.2,96.3
	c0-0.1,0-0.1,0-0.2c-0.1,0-0.2,0-0.4,0c0.1,0,0.2,0,0.4,0C69.2,96.2,69.2,96.3,69.2,96.3z M73.1,117.3c0,0-0.1,0.1-0.1,0.1
	C73,117.4,73.1,117.4,73.1,117.3C73.1,117.3,73.1,117.4,73.1,117.3C73.1,117.4,73.1,117.3,73.1,117.3z M81,108.9c0.1,0,0.1,0,0.1,0
	C81.1,109,81.1,108.9,81,108.9z"/>
<path class="st0" d="M224.8,401.5c-0.3-1.2-0.8-1.6-1.8-1.6c0,0.4-0.1,0.8-0.1,1.2c-0.2,5.1-0.4,10.2-0.7,15.2c0,1-0.1,1.9,0.4,2.8
	c5,9.4,12.1,17.3,18.5,26.4c0-2.8,0-5.1,0-7.3c-4-7.1-7.6-14.5-10.8-22C228.2,411.5,226,406.7,224.8,401.5z"/>
<path class="st0" d="M304.8,533.9c0.5-7.8-2.4-14.7-6.1-21.3c-0.3-0.6-0.9-0.6-1.5-0.6c4.4,7.1,7,14.7,7,23.1
	c-4.6-6.7-10.2-11.8-18.3-14c-4.4-1.2-8.9-0.8-13.3-0.2c-2.5,1.3-5.3,1.9-7.4,3.9c1.1-0.1,2.5,1.1,3.1,0.2c1.8-3.1,4.7-2.9,7.7-3.1
	c4.4-0.2,8.7-0.1,13,1.5c5.7,2.2,9.5,6.4,12.8,11.2c0.7,1,1.5,1.4,2.4,1.2C305.1,535.6,304.7,534.6,304.8,533.9z"/>
<path class="st0" d="M381.6,371.3c-3-0.8-2.9-1.3-2.7,1.9c0.3,7.8,0.7,15.6,1,23.3c0.3-0.1,0.7-0.2,1-0.3c0-4.8,0-9.7,0-14.5
	c-0.9-0.1-0.2,0.9-1,0.9c0-2.8,0-5.5,0-8.3c0-1.6,0.5-2,2.2-1.3c1.7,0.7,3.1,1.1,4.3,2.8c0.9,1.3,0.3,2.3,0.3,3.3
	c0,4.7,1.8,9.2,1.3,13.9c0.3-0.1,0.6-0.2,0.8-0.3c0-0.5,0-1,0-1.5c-0.4-3.7-1.1-7.5-1-11.2C387.7,375.4,386.4,372.5,381.6,371.3z"/>
<path class="st0" d="M334.8,519.9c1.3,1.2,2.8,1.6,4.6,2c4.6,1,8.6,2.9,11,7.4c1.2,2.3,4,3.6,5.2,6.2c0.1,0.2,0.8,0.1,1.2,0.2
	C352.3,526.4,345.4,520.7,334.8,519.9z"/>
<path class="st0" d="M334.3,584.1c-1.4,1.1-2.9,2.2-4.5,2.9c-3.6,1.6-6.5,4.1-9.3,6.8c-0.6,0.6-1.4,1.1-2.2,1.5
	c-1.4,0.7-2.9,1.6-2.4,3.6c5.7-5.4,12.1-9.9,18.9-13.8c0.6-0.4,1.2-0.8,1.6-1.5C335.6,583.5,335,583.6,334.3,584.1z"/>
<path class="st0" d="M312.8,601c-0.2,0.7-0.6,1.4-1.2,1.5c-1.9,0.4-2.3,1.9-3,3.5c-0.6,1.5-1.7,3-3.8,2.9c0.5,0.9,0.9,1.8,1.5,2.9
	c2.2-4.5,5.2-7.9,8.2-11.4C313.8,600,313.1,600,312.8,601z"/>
<path class="st0" d="M314.8,600.2c0.3-0.4,0.7-0.8,1-1.2c-0.5,0.1-1.1,0-1.4,0.2C314,599.6,314.6,599.9,314.8,600.2z"/>
<polygon class="st0" points="392.3,115.3 392.3,115.3 392.3,115.3 "/>
<polygon class="st0" points="394.8,116.3 394.8,116.3 394.8,116.3 "/>
<path class="st0" d="M191.7,143.8C191.7,143.8,191.6,143.8,191.7,143.8C191.6,143.8,191.6,143.8,191.7,143.8L191.7,143.8z"/>
<path class="st0" d="M192.8,142.9C192.8,142.9,192.8,142.9,192.8,142.9C192.8,143,192.8,143,192.8,142.9L192.8,142.9z"/>
<polygon class="st0" points="363.1,274.8 363.2,274.8 363.1,274.7 "/>
<path class="st0" d="M615.9,116.3c-1-7.1-1.8-14.2-3.5-21.1C607.7,76,601.3,57.5,589.8,41c-0.6-0.5-1.2-1.1-1.5-1.8l0,0
	c-3.6-3.4-6.8-7.2-11-10c-1.7-1.7-3.7-2.9-5.7-4.1l-0.1-0.1l0,0c-0.4-0.2-0.8-0.5-1.2-0.7l0,0c-1.5-1-3-2-4.5-3
	c-7.3-4-14.9-7.1-22.7-9.7l-0.1,0l-0.1-0.1c-7.4-2-14.8-3.7-22.4-4.5c-9.9-1-19.7-0.8-29.5,0.6l0-0.1c-3.5,0.5-6.6,2.3-10.1,2.7
	c-7.8,3.3-13.6,8.8-18.6,15.4c-5.1,5.6-9.2,12-13,18.5c2.1,2.6,4.3,5.1,6.4,7.8c5.6,7.2,11.1,14.4,16.7,21.7v0l0.1,0.1
	c0.1,0.2,0.2,0.3,0.4,0.5c1,1.6,2,3.2,3.4,4.5c0.6,1.3,1.4,2.5,2.6,3.4c0.1,0.2,0.1,0.3,0.2,0.5c0.1,0.1,0.2,0.2,0.3,0.3
	c0,0.2,0.1,0.4,0.1,0.5c5.9-0.6,11.8-0.7,17.6,0.6c2.7,0.6,5.4,0.9,7.8,2.4c2.4,0.5,4.8,1,7,2.1c12.2,3.5,23.3,8.7,30.3,19.9
	c0.6,1,0.9,2.3,2.2,2.8c0,0.4,0.1,0.7,0.1,1.1c0.4-0.4,0.3-0.8-0.1-1.1c-0.1-1.3-1-2.4-0.8-3.8c0.5,0.3,0.9,0.5,1.3,0.8
	c7.6,6.2,14.1,13.3,19.3,21.5c5.9,9.4,9.8,19.6,12.7,30.2c0.4,1.3,0.5,2.7,1.5,4.1c3.9-22.4,2.1-44.2-3.5-65.8
	c0.2-0.1,0.5-0.1,0.7-0.2c1,1.9,2.1,3.7,3.1,5.6c1.1,2,2.1,3.9,3.1,5.9c4.3,7.9,7.6,16.2,11,24.5c0.5,0.2,0.9,0.4,1.2,0.7
	c-0.3-0.3-0.7-0.5-1.2-0.7c0.7,1.9,1.3,3.9,2,5.8c2,5.7,3.4,11.6,5.1,17.5c0,0,0,0,0,0v0l0,0l0,0c0.2,2.5,0.5,5,0.7,8
	c0.4-1.4,0.7-2.2,0.8-3.1c0.7-4.2,0.5-8.5,0.6-12.8c0.1-1.4-0.7-3.2,1.1-4.2c0.3-0.1,0.3-0.5,0-0.6c-2.1-1.2-0.8-3.1-1.2-4.7
	c0.4-3.6-0.5-7.2-0.5-11.2c2.3,2.2,3.2,4.6,4.4,6.9c2.9,5.9,5.3,12.1,7.2,18.4c0.1,0.4,0.5,0.8,0.7,1.3c0.4-1.2,0-2.5,0.8-3.6
	c0.5-4,1-7.9,1.5-11.9C616.4,132.1,616.3,124.2,615.9,116.3z M481.8,79.5c0.2-0.1,0.3-0.2,0.2-0.4C482.1,79.2,482,79.4,481.8,79.5z
	 M483.6,52.4L483.6,52.4c0.1,0,0.1,0,0.2,0C483.7,52.4,483.7,52.4,483.6,52.4z M540.4,102.4c-0.4-0.1-0.9-0.6-1-0.9
	c-0.2-0.6,0.5-0.8,0.9-0.9c0.6-0.1,0.9,0.2,1,0.7C541,101.9,541,102.6,540.4,102.4z M572.2,26.8c0.2,0.4,0.5,0.7,0.8,1
	C572.7,27.5,572.4,27.2,572.2,26.8z M599.4,151c0.1,0.4,0.2,0.8,0.3,1.2C599.7,151.8,599.6,151.4,599.4,151z M599.8,157.4
	c1.1,0.2,1.1-0.4,1.1-1C600.9,156.9,600.9,157.5,599.8,157.4z"/>
<path class="st0" d="M465.1,100.6c-2.1,0.1-3.5-1.3-4.8-2.6c-1.8-2-3.6-4-5.4-6l0,0c0-0.1-0.1-0.3-0.2-0.3l0,0
	c-0.1-0.5-0.4-0.8-0.9-1c-0.3-0.4-0.6-0.7-0.8-1.1h0c-0.2-0.6-0.5-1.1-1.2-1.3c-0.2-0.2-0.3-0.4-0.5-0.6c-0.1-0.2-0.3-0.4-0.4-0.6
	l0-0.1l0,0c-0.4-0.8-0.8-1.5-1.7-1.7c-0.1-0.2-0.2-0.4-0.3-0.6l0,0c-0.4-1.2-1.2-2.1-2.2-2.8l0-0.1h0c-0.1-0.4-0.3-0.7-0.7-0.7
	c-0.3-1.2-1.1-2.1-2.1-2.8l0,0l0,0c-0.1-0.7-0.5-1.1-1.1-1.4c-3.7-5.1-7.4-10.2-11.2-15.2c-1.9-2.5-3-5.2-3.1-8.4
	c-1.1-1.1-2.2-2.3-3.3-3.4c-0.9-0.7-1.8-1.4-2.6-2.2c-0.1,0-0.2-0.1-0.2-0.2c-2.9-1.8-5-4.8-8.5-5.8c0,0-0.1,0.1-0.1,0.1
	c0,0,0.1-0.1,0.1-0.1c-0.1-1.1-1.1-1.3-1.8-1.8c-6.8-4.5-14.2-7.6-21.7-10.5c-0.3,0-0.6,0-0.9-0.1c-1.6-0.6-3.2-1.2-4.8-1.9
	c-7.9-2.1-15.8-3.9-23.9-4.7c-13.1-1.1-25.9,0.2-38.3,4.7c-1.3,0.6-2.5,1.2-3.8,1.8c1.3,0.1,2.4-0.2,3.6-0.5
	c-1.2,0.3-2.4,0.6-3.6,0.5c-5.1,1.9-9.4,5-13.8,7.9c0,0.1-0.1,0.2-0.2,0.2c-1.1,0.9-2.2,1.7-3.1,2.7c-1.6,1.8-3,1.8-4.7,0.2
	c-0.7-0.3-1.3-0.7-2-1l0,0c-3.3-1.3-6.4-3.1-9.8-4c-0.7-0.2-1.3-0.9-2.1-0.7c0,0,0,0,0,0c0,0,0,0,0,0l0,0c0,0,0,0,0,0
	c-0.3-0.1-0.6-0.2-1-0.3l0,0c-6.1-2.4-12.5-3.4-18.9-3.9c-10.2-0.9-20.2,0.5-30.1,3c-0.7,0.3-1.4,0.6-2.1,0.9
	c-1.4,0.4-2.8,0.7-4.3,1.1c-1.7,0.6-3.4,1.3-5.1,1.9l0,0c-5.4,2.4-10.6,5.2-15.8,8l-0.1,0.1c-1.5,0.9-3,1.9-4.5,2.8l-0.1,0
	c-1.3,1-2.7,1.9-4,2.9c-1.1,4.6-4.5,7.7-7.4,10.9c-6.4,7-13.1,13.6-19.6,20.6c-2.9,3.1-5.9,6.1-9,9c-1,0.1-2-0.2-2.9,0.6
	c-0.4,0-0.7,0.1-1.1,0.1c0,0,0,0,0,0c-0.2,0.1-0.4,0.1-0.6,0.2c0,0,0,0.1,0,0.1c0,0,0.1,0,0.1,0.1l-0.1-0.1
	c-0.1,0.2-0.2,0.4-0.4,0.6c0,0,0,0,0,0l0,0c-1.2,1.2-2.1,2.6-2.9,4.1c-2.7,3.4-4.6,7.3-7,10.8c-0.3,0.7-0.6,1.3-0.9,2
	c-3,5.6-5.9,11.2-8.1,17.2c-0.1,0.1-0.2,0.1-0.3,0.1c-2.5,6.4-4.6,13-6.7,19.6c-0.1,0.3-0.1,0.7-0.2,1c-0.2,0.9-0.4,1.9-0.6,2.8
	c-0.1,0.4-0.2,0.9-0.3,1.3c-0.9,3-1.7,6-2,9.1l0,0c-0.1,0.2-0.3,0.4-0.3,0.7c-3.6,19.5-3.9,39.1-1.6,58.7c0,0.3-0.1,0.7,0,1
	c2,9.5,3.6,19,6.8,28.2c3.1,9,6.3,18.1,11.9,25.9c7.3,10.3,17.4,17.8,26.8,26c0.1,0.1,0.3,0.2,0.4,0.3c0-0.2,0-0.4,0-0.5
	c-4.3-8.1-7.6-16.6-10.3-25.3c-4.2-13.5-6.3-27.4-6.7-41.5c-0.2-7.1,0-14.1,1.2-21.1c-0.1-0.2-0.1-0.3,0.1-0.4
	c0.4-3.8,0.9-7.6,2-11.4c2-10.5,5.7-20.4,11-29.7c0.4-0.8,0.7-1.6,1.1-2.4c-0.1,0-0.2,0-0.3,0c0.1,0,0.2,0,0.3,0
	c2.4-3.7,4.7-7.5,7.6-11c1.9-2.5,3.9-4.9,6.2-7.1c0.1-0.1,0.3-0.3,0.4-0.4c2.5-2.8,5.3-5.3,8.4-7.5c0.1-0.7,0.5-1,1.1-0.9
	c0.7-1.1,1.7-1.7,2.9-2.1l0,0.1c0.4-0.3,0.8-0.6,1.2-0.8l0,0c0.6-0.4,1.2-0.8,1.7-1.2l0.1,0c0.9-0.7,1.8-1.4,2.6-2.1
	c0.2,0,0.4,0,0.6,0c1.9-1.3,4.3-1.8,6-3.6h0c2.5-0.4,4.5-2.1,6.9-2.7c22.7-9.6,44.4-8.5,64.9,6.1c8.9,6.3,16.5,13.9,24,21.8
	c0.4,0.4,0.8,0.8,1.4,1.6c2.2-6.5,5.4-12.2,8.9-17.7c-0.1-0.7,0-1.4,0.2-2c-0.2,0.6-0.3,1.3-0.2,2c4.5-5.8,9.3-11.3,15-16
	c0.1,0,0.3,0,0.4,0c0.5-1.1,1.7-1.3,2.5-2l5.1-3.6c-0.1-0.5-0.1-1,0-1.3c-0.1,0.4-0.1,0.8,0,1.3c4.4-2.7,8.9-5.2,13.7-6.9
	c3.3-1.2,7-1.5,10.5-2.2c0.4,0,0.8-0.1,1.2-0.1c4.3-0.9,8.6-0.6,12.9-0.4c5.9,0.6,11.7,1.6,17,4.3c1,0,1.8,0.3,2.5,1
	c5.7,2.1,10.8,5.3,15.6,8.7c1.2,0.5,2.1,1.2,3,2.1c1.1,0.5,2,1.2,2.8,2.1c2.3,1.8,4.6,3.6,7,5.4c3.2,3.3,6.9,6,9.6,9.7
	c1.8,1.6,3.4,3.4,4.7,5.3c1.2,1.3,2.4,2.6,3.3,4.2l0,0c0.5,0.7,1,1.3,1.5,2l-0.1,0c0.2,0.2,0.3,0.4,0.5,0.6l0,0
	c1.3,1.5,2.4,3,3.3,4.7l0,0c0.7,0.8,1.4,1.6,1.6,2.7c0,0.2,0,0.3,0,0.5c2.2,2,3.4,4.7,4.6,7.4c3.8,6.5,6.7,13.4,8.5,20.7
	c0.6,0.9,0.7,2,0.9,3c0,0.2,0,0.4,0.1,0.5c1.5,4.6,2,9.4,2.4,14.3c0.5,5.8,1.1,11.6,0.8,17.3c-0.3,6.5-0.3,13-1.4,19.5
	c-0.6,3.6-1.2,7.3-1.8,10.9c-0.4,3.3-1,6.6-2.5,9.6c0.6,0.5,0.2,1,0.1,1.6c-1.6,7.1-4,13.8-6.6,20.5c-2.7,7-6.2,13.7-9.6,20.5
	c-0.6,0.3-0.5,0.7-0.3,1.2c0.2-0.4,0.4-0.7,0.5-1.1c5.6-6.4,11-13.1,16.2-19.9c1.8-2.3,3.7-4.7,5.5-7c0.9-1,2.1-1.9,2.8-3.1
	c2.1-3.8,4.9-6.9,7.5-10.3c0.2-0.2,0.3-0.4,0.5-0.7c0,0,0-0.1,0-0.1c2.5-4.1,5.4-8,8.1-11.9c5.3-7.5,7.6-15.9,9.2-24.6
	c0.1-0.7,0.3-1.4,0.5-2.2c0.7-7.6,2-15.1,2.4-22.7c0.8-16.7,1.8-33.4-2.3-49.8C488.5,136.8,478.9,117.6,465.1,100.6z M127.8,159.2
	c0-0.2,0-0.5,0.1-0.7C127.8,158.7,127.8,158.9,127.8,159.2z M155.5,95.8c-0.1,0.2-0.2,0.4-0.3,0.5C155.3,96.2,155.4,96,155.5,95.8
	c0.4-0.8,0.4-1.7,0.3-2.7l0,0c0.1-0.2,0.3-0.3,0.4-0.5l0,0c-0.1,0.2-0.3,0.3-0.4,0.5C155.9,94.1,155.9,95,155.5,95.8z M158.4,92.3
	c0.5,0.2,1.1,0.4,1.5,0.1C159.5,92.7,159,92.6,158.4,92.3z M161.7,171.8c-0.5,0.1-0.8,0.4-0.8,0.8
	C160.9,172.2,161.2,171.8,161.7,171.8c0.2,0,0.5,0,0.6,0.1C162.2,171.8,162,171.8,161.7,171.8z M235.9,33.7
	c-0.3,0.1-0.5,0.1-0.8,0.2C235.4,33.8,235.7,33.7,235.9,33.7c0.6-0.1,1.3-0.3,1.9-0.4C237.2,33.4,236.6,33.6,235.9,33.7z M233.9,34
	c0.1,0,0.1,0,0.2,0C234.1,34,234,34,233.9,34z M283.7,35.1c-0.4,0-0.8-0.1-1.2-0.4C282.9,35,283.3,35.1,283.7,35.1
	c0.1,0,0.2,0,0.3,0C283.9,35.1,283.8,35.1,283.7,35.1z M325.8,27.8L325.8,27.8L325.8,27.8L325.8,27.8z M435.1,116.8
	c0.1,0.1,0.1,0.2,0.3,0.3C435.2,117,435.1,116.9,435.1,116.8z M443.2,81.8c0.1,0,0.1,0.1,0.2,0.1C443.3,81.9,443.2,81.8,443.2,81.8z
	"/>
<path class="st0" d="M446.9,293c0.7-2,1.3-4,1.9-6c0,0,0,0,0,0c1.6-3.5,2-7.3,3-11c1.2-4.5,2-9.1,2.9-13.7c0.5-3.6,0.9-7.3,1.4-10.9
	c0.1-2.2,0-4.4,0.6-6.5c0-1,0.1-1.9,0.1-2.9c-0.4-5.8,0.4-11.5-0.1-17.3c-0.8-9.8-1.1-19.7-4-29.2c-0.9-2.5-1.9-5-2.8-7.6
	c-2.7-7.5-6.6-14.4-10.9-21c-0.4-0.7-0.8-1.4-1.3-2.1c-0.9-1.1-1.8-2.2-2.4-3.5c-0.7-0.6-1.2-1.2-1.5-2l-4-4.9
	c-7.2-8.3-15.2-15.7-24-22.2c-3.7-2.6-7.9-4.6-11.5-7.4c-0.5,0-1-0.1-1.5-0.1c0-0.1-0.1-0.2-0.1-0.3c-11.9-6-24.4-7.5-37.5-4.7
	c-4.3,1.1-8.4,2.7-12.4,4.5c-0.1,0.1-0.2,0.2-0.3,0.1c-2.6,1.5-5.2,3-7.8,4.5c-0.8,0.4-1.5,0.9-2,1.7c-2.5,0.6-4,2.7-5.9,4.1
	c-2.1,1.5-4,3.3-5.5,5.5c-4.6,3.8-8,8.6-11.1,13.6c-1.2,2-2.2,4-3.3,6.1c-1.4,2.7-1.4,2.7-3.7,0.8c-7.1-5.8-14.1-11.8-21.7-16.9
	c-8.8-5.8-18.1-10.3-28.7-11.7c-6.7-0.9-13.4-0.3-20.1,1c-6.6,1.7-12.9,4.1-19,7.1l0,0c-1.7,0.9-3.4,1.8-5,2.8
	c-0.2,0.1-0.3,0.1-0.5,0.2c-1,0.8-2.1,1.6-3.4,2.1l0,0c-0.3,0.3-0.7,0.5-1,0.8c-0.1,0.1-0.3,0.1-0.4,0.2c-0.8,0.8-1.7,1.4-2.7,1.9
	l-0.1,0.1l-0.1,0c-2.5,2.3-5.5,4.2-7.8,6.7c0.1,0.7,0,1.5-0.1,2.2c0.1-0.7,0.2-1.4,0.1-2.2c-5.9,5.2-10.5,11.4-14.7,18
	c-0.3,0.5-0.7,1.1-1.1,1.6l0,0c-0.7,1.4-1.5,2.8-2.2,4.2c0,0.3,0.1,0.5,0.3,0.8c-0.2-0.2-0.4-0.5-0.3-0.8c-2.4,4.1-3.7,8.8-5.9,13
	l0,0c-2.6,7.8-4.5,15.7-6,23.7c-0.4,2.8-0.7,5.6-1.1,8.4c0,0.2,0,0.3,0,0.5c0,2.1-0.3,4.2-0.4,6.3c-0.9,22.8,2.6,45,10.6,66.4
	c1.5,3.9,2.6,8.1,5.1,11.5c2.6,3.4,4.3,7.2,6.4,10.8c0.5,0.9,0.6,1.8,0.5,2.8c-1.1,12.3-2.1,24.6-3.1,36.9c-0.1,1,0.3,1.5,1,2.1
	c4.5,4.3,9.1,8.5,13.5,12.9c1.2,1.2,2.5,1.4,4,1.2c3.4-0.5,6.9-1,10.4-1.5c3.3-0.7,6.7-1.2,10.1-1.4c2-0.6,4-1,6-1
	c0.3-0.2,0.7-0.4,1,0c1,0,1.9-0.8,3-0.6l0.1-0.1l0.1,0.1c0.2-0.1,0.5-0.2,0.7-0.4c4.4-0.7,8.9-1.4,13.5-2.1
	c-2.6,11.5-5.5,22.7-7.5,34.1c3.4,1.3,6.4,3.4,10,4.1c2.1-6.1,3.6-12.4,7.5-17.8c0.1,2.2,0.1,4.4-0.3,6.6c-0.7,4.7-1.5,9.4-2.3,14.1
	c5.2,1,10.3,2.6,15.3,4.5c2.2-6.5,3.9-13.2,6.9-20.2c0.4,2.1,0.7,3.5,1,4.9h0c0.1,1.9,0.3,3.8,0.2,5.6c-0.2,4-0.5,8-0.8,12
	c2-1.7,3.8,0.1,5.6,0.4c3.9,0.7,7.8,1.8,11.7,2.8c1.6-8.5,2.5-17.2,5.3-25.5c1.3,3.4,1.9,6.9,2.4,10.4c0.8,5.1,1.7,10.1,2.5,15.2
	c-0.3,0.5,0,1,0.1,1.5c0.5-0.2,1-0.6,1.4-0.5c5.8,1.2,11.3-0.8,16.9-1.8c0.7-0.1,1.5-0.5,2,0.4c0.2-8.6-0.1-17.3,3.6-25.5
	c0.7,1.5,1.2,3,1.5,4.6c1.4,6.1,1.7,12.4,2.4,18.6c5-2,10.2-3.2,15.3-4.8c0.6-0.2,0.9,0.3,1.4,0.2c-0.5-5-1.1-10-0.1-15
	c0.6-3.1,1.5-6.1,3.7-9.1c1.8,7.2,3.4,13.8,5,20.4c3.5-1.6,7.1-2.7,10.4-4.7c0.6-0.4,1.6-0.3,2.4-0.4c-1-2.9-2.1-5.7-2.9-8.6
	c-1.6-5.3-3.3-10.7-3.1-16.4c0-0.6-0.4-1.5,0.4-1.7c0.7-0.2,1.1,0.6,1.5,1.1c1.1,1.3,2,2.9,2.5,4.5c1.4,4.1,2.6,8.3,4,12.4
	c0.9,2.8,1.7,5.6,3.7,8.1c0.6-1.3,0.9-2.5,0.8-3.7c0.5-0.7,0.3-1.6,0.3-2.4c-0.1-11-3-21.5-6.3-31.9l0,0c-0.7-1.7-0.1-2.3,1.7-2
	c3.9,0.5,7.7,1.3,11.5,2.2c5.7,1.3,10.9,3.9,16.6,5.4c5.5,1.5,10.9,3.5,16.3,5.3c0.2-0.1,0.3-0.1,0.5-0.2c3.1-3.6,6.3-7.3,9.4-10.9
	l0,0c0.9-1.2,1.9-2.3,2.8-3.5l0.1-0.1c0.1-0.1,0.2-0.3,0.3-0.4l0.1-0.2c0.2-0.3,0.5-0.6,0.7-0.9c0.9-1.3,1.7-2.6,2.6-3.8
	c1.4-1.9,1.7-4,1.5-6.3c-1.1-3.3-2.4-6.5-3-9.9c-1.4-7.6,0.8-14.1,6-19.7C439.8,310.8,443.9,302.1,446.9,293z M449.8,188
	c0,0.8-0.4,1.6-0.5,2.4C449.4,189.7,449.7,188.8,449.8,188c-1.5-0.3-2.1-1.3-2.5-2.4C447.7,186.7,448.3,187.7,449.8,188z
	 M175.3,180.6L175.3,180.6L175.3,180.6c0,1,0.6,1.8,0.8,2.6C175.9,182.4,175.3,181.5,175.3,180.6z M320,346.5
	c-0.1,0.1-0.1,0.3-0.1,0.4C319.8,346.8,319.9,346.6,320,346.5z M295.7,259.1L295.7,259.1c0.5-0.2,0.9-0.4,0.9-0.9
	C296.7,258.7,296.2,258.9,295.7,259.1z M297,291.4c-0.1-0.1-0.3-0.1-0.4-0.3C296.7,291.3,296.9,291.4,297,291.4z M284.8,229
	c0.7,0.3,1.3,0.7,2,1C286.1,229.7,285.5,229.4,284.8,229L284.8,229z M284.8,229L284.8,229c-0.7-0.5-1.4-1-2-1.5
	C283.5,228,284.1,228.5,284.8,229z M279.7,209.8c0,0.3-0.1,0.5-0.3,0.6C279.5,210.3,279.6,210.1,279.7,209.8
	c-0.1-0.4-0.2-0.9-0.5-1.1C279.5,209,279.6,209.4,279.7,209.8z M267.8,310.9c0-0.1,0.1-0.3,0.1-0.4
	C267.9,310.6,267.9,310.7,267.8,310.9z M267.3,312c0.2-0.3,0.4-0.5,0.5-0.9C267.6,311.5,267.5,311.8,267.3,312z M266.8,312.4
	c0.1,0,0.1-0.1,0.2-0.1C267,312.3,266.9,312.3,266.8,312.4z M280.2,286.6c-0.5,0.7-1,1.5-1.5,2.3c0.2,0.1,0.4,0.2,0.6,0.3
	c-0.2-0.1-0.4-0.2-0.6-0.3c-6.6,8.7-14.7,20-17.1,32.4c-2.2-6.6-7.9-9.3-13.3-12c-5.6-2.8-11.4-5.2-17.2-7.8
	c-2.2-0.9-4.5-1.6-6.5-3.1c-11.6-7.7-21-17.3-25.6-30.5c-3.6-10.3-0.8-20.2,8.3-27.6c2.1-1.7,4.9-3,7.8-3.5c6-2,12-2.3,17.8,0.2
	c4.3,1.8,6,5.7,6.8,10c0.5,2.8,0.6,5.7,0.1,8.6c-0.3,1.7,0.3,2.7,1.9,3.4c2.5,1.2,4.9,2.7,7.4,4c1,0.5,1.4,1.2,1.4,2.3
	c-0.1,4.9,0,9.8,0,14.7c0.3,0,0.6,0,0.9,0.1c0.8-4,1.6-7.9,2.3-11.9c0.3-1.4,0.4-2.8,0.8-4.1c0.9-2.4,0.1-3.9-2.1-4.9
	c-1.6-0.8-3-1.9-4.6-2.4c-2-0.7-2.6-1.7-2.5-3.8c0.3-4.2,0.5-8.4,1.9-12.4c1.7-4.7,4.5-8.6,9.3-10.4c10.2-4.1,20.3-3.7,30.1,1.4
	c3.5,1.8,5.9,4.7,7.9,8c0-0.3,0-0.6,0.1-0.8c-0.1,0.3-0.1,0.6-0.1,0.8c0.9,2.1,1.4,4.3,2,6.6c0-0.5,0-1.1,0.1-1.6
	c0,0.5,0,1.1-0.1,1.6c0.5,3.9-0.5,7.8-0.4,11.7l0,0c-0.1,0.5-0.8,0.8-0.7,1.4c0,0,0,0,0,0c-0.7,2-1.4,3.9-2.1,5.9
	c0.5-0.3,0.8-0.5,1.1-0.9c-0.3,0.3-0.7,0.6-1.1,0.9l0,0C290,272.8,285.2,279.7,280.2,286.6z M295.4,263.2c0,0,0,0.1-0.1,0.1
	C295.3,263.3,295.4,263.2,295.4,263.2z M295,263.8c0,0.1-0.1,0.1-0.2,0.2C294.9,264,294.9,263.9,295,263.8z M305.6,340.7
	c-3.6,8-8,15.2-12.9,22.3c0.4-3,0.7-6,1.2-9c1.5-9.5,3.1-19,5.9-28.2c1-3.1,2.1-6.3,4.1-8.9c0.4-0.5,1.2-2.1,2-0.5
	c2.3,4.8,6.6,8.5,8.5,13.5c2.8,7.4,3.7,15.1,4.9,22.8c0.7,4.6,1.2,9.2,1.7,13.8C315.4,358.2,310.3,349.7,305.6,340.7z M326.3,340.3
	c-0.4,0.1-0.7,0.1-1,0C325.6,340.4,325.9,340.4,326.3,340.3c0-0.1,0-0.3,0.1-0.4C326.3,340.1,326.3,340.2,326.3,340.3z M388.7,193
	C388.7,193.1,388.7,193.1,388.7,193C388.7,193.1,388.7,193.1,388.7,193z M409.9,276.8c-6.3,6.6-12.5,13.2-18.8,19.8
	c-0.4,0.4-0.7,1.3-1.6,0.7c-3.2-2.3-6.9-4-9.7-7c-0.9-3.3-1.8-6.5-2.6-9.8c-0.2-1-0.7-1.6-1.7-1.9c-3.9-1.2-7.7-2.5-11.8-3.3
	c2.7,1.5,5.4,3.1,8.2,4.6c1.3,0.7,2,1.5,2.2,3c0.4,2.5,1.1,5,1.7,7.5c0.2,0.8,0.5,1.5,1.2,2.1c2.5,2.2,4.8,4.6,7.5,6.5
	c1.5,1.1,1.2,1.7,0.2,2.8c-4.6,5.1-9.5,9.9-13.8,15.2c-0.8,1-1.5,2-2.3,2.9c-2.4-2.5-4.1-5.5-5.9-8.4c-3.6-5.8-7.1-11.6-10.2-17.7
	c-4.3-7-8-14.3-12.6-21.1c-2.6-3.9-5.3-7.8-8.4-11.4c1.6-1.2,3.3-2.5,4.9-3.7l0,0c5.4-4.7,10.7-9.5,16.1-14.2
	c4.5-4.3,9.2-8.5,14-12.4c3.4-2.8,6.2-6.2,10.5-7.8c0.6,0,1.2-0.1,1.7,0c-0.5-0.1-1.2,0-1.7,0c11.3,13.6,20.3,28.6,28.5,44.2
	c1.3,2.4,2.8,4.7,4.3,7C410.8,275.3,410.7,276,409.9,276.8z M423.1,229.1L423.1,229.1C423.1,229.1,423.1,229.1,423.1,229.1
	C423.1,229.1,423.1,229.1,423.1,229.1z M423.5,229C423.5,229,423.5,229,423.5,229c-0.1-0.1-0.1-0.1-0.2-0.1
	C423.4,228.9,423.5,229,423.5,229C423.5,229,423.5,229,423.5,229z"/>
<path class="st0" d="M386.3,375.8c-1.2-1.7-2.6-2.1-4.3-2.8c-1.7-0.7-2.2-0.3-2.2,1.3c0,2.8,0,5.5,0,8.3c0.8,0,0.1-1,1-0.9
	c0,4.8,0,9.7,0,14.5c2.7-0.3,4.5-2.5,7-3.2c0.5-4.7-1.3-9.2-1.3-13.9C386.5,378.1,387.2,377.1,386.3,375.8z"/>
</svg>
