<?xml version="1.0" encoding="utf-8"?>
<!-- Generator: Adobe Illustrator 19.1.1, SVG Export Plug-In . SVG Version: 6.00 Build 0)  -->
<svg version="1.1" id="Calque_1" xmlns="http://www.w3.org/2000/svg" xmlns:xlink="http://www.w3.org/1999/xlink" x="0px" y="0px"
	 viewBox="0 0 93 95" style="enable-background:new 0 0 93 95;" xml:space="preserve">
<path d="M80.1,40.2c-0.3,0.4-0.6,0.7-0.9,1.1c0.1-0.6,0.3-1.1,0.5-1.6c0.8-2.1,1.5-4.2,1.9-6.4c0.6-3.2,0.6-6.5-0.3-9.7
	c0,0,0,0,0-0.1c-0.3-1.1-0.7-2.1-1.2-3.1c0.1-0.1,0-0.1,0-0.2l0,0c0-0.2-0.1-0.3-0.1-0.6c0.1,0,0.1,0.1,0.2,0.1
	c1.1,0.9,2,1.9,2.8,3.1c0.9,1.4,1.4,2.8,1.9,4.4c0.1,0.2,0.1,0.4,0.2,0.6c0.6-3.3,0.3-6.4-0.5-9.6c0,0,0.1,0,0.1,0
	c0.1,0.3,0.3,0.5,0.4,0.8c0.2,0.3,0.3,0.6,0.5,0.9c0.6,1.1,1.1,2.4,1.6,3.6c0.1,0.3,0.2,0.6,0.3,0.8c0.3,0.8,0.5,1.7,0.7,2.5l0,0
	c0,0.4,0.1,0.7,0.1,1.2c0.1-0.2,0.1-0.3,0.1-0.5c0.1-0.6,0.1-1.2,0.1-1.9c0-0.2-0.1-0.5,0.2-0.6c0,0,0-0.1,0-0.1
	c-0.3-0.2-0.1-0.5-0.2-0.7c0.1-0.5-0.1-1-0.1-1.6c0.3,0.3,0.5,0.7,0.6,1c0.4,0.9,0.8,1.8,1,2.7c0,0.1,0.1,0.1,0.1,0.2
	c-0.5,2.4-1.4,4.7-2.7,6.8c0,0.1,0,0.1-0.1,0.2c-0.1,0.1-0.2,0.2-0.3,0.4c0,0,0,0.1,0,0.1c-0.4,0.6-0.9,1.2-1.3,1.8
	c-0.6,0.7-1.2,1.4-1.9,2.1c-0.1,0.1-0.2,0.2-0.3,0.3c-0.5,0.3-0.8,0.8-1.4,1.1c0.3-1.2,0.7-2.4,0.8-3.6c0.2-0.5,0.2-1,0.2-1.5
	c-0.1,0.3-0.3,0.7-0.4,1c-0.4,0.8-0.8,1.6-1.2,2.4C81.1,38.6,80.6,39.4,80.1,40.2L80.1,40.2z"/>
<path d="M9.8,43.3c0.3,1,0.8,1.9,1.2,2.8c-2.4-1.9-4.3-4.2-5.7-6.8c-0.8-1.5-1.4-3-1.9-4.6c-0.2-0.6-0.3-1.2-0.4-1.9
	C3,32.5,3,32.2,3,32c0.1-1.4,0.4-2.8,0.6-4.2c0.1-0.5,0.1-1,0.3-1.5c0.1-0.2,0.1-0.4,0.3-0.6c0,0,0,0,0,0c-0.1,1.4,0.2,2.7,0.4,4.1
	c0.1-0.2,0.2-0.4,0.2-0.6c0.1-0.3,0.2-0.6,0.2-1c0.2-0.6,0.3-1.2,0.6-1.7c0.2-0.6,0.5-1.2,0.7-1.8c0.1-0.4,0.4-0.7,0.5-1.1l0,0
	c0.3-0.4,0.5-0.9,0.7-1.4C7.8,22,8.1,21.8,8,21.4c0.2,0,0.1-0.3,0.3-0.3c0,0.3,0,0.6-0.1,0.8c-0.2,1.4-0.5,2.8-0.4,4.2
	C8,26.9,8,27.6,8.1,28.4c0.1,0.6,0.3,1.2,0.4,1.8c0,0.2,0,0.7,0.1,0.6c0.3-0.1,0.1-0.4,0.2-0.6c0.2-1.5,0.8-2.9,1.6-4.2
	c0.1-0.2,0.2-0.3,0.3-0.5c0.1-0.2,0.3-0.2,0.4-0.4c0,0,0-0.1,0-0.1c0.1,0,0.2,0,0.3,0c0,0.1,0,0.1-0.1,0.2c-0.6,1.7-1.1,3.4-1.2,5.2
	c-0.2,1.8-0.2,3.6,0,5.4c0.2,2.1,0.7,4.1,1.4,6.1c0.4,1.3,1,2.5,1.6,3.7c0.4,0.8,0.9,1.5,1.3,2.4c-0.6-0.5-1.1-1-1.5-1.5
	c-1.1-1.3-2.1-2.6-2.9-4.1c0-0.1-0.1-0.2-0.2-0.3c-0.1-0.4-0.3-0.8-0.6-1.1C9.2,41.7,9.4,42.5,9.8,43.3z"/>
<path d="M63.2,11.8c0.4-1,1.3-1.1,2.1-1.5c0.3-0.2,0.6,0.2,0.9,0.2c0.3,0.4,0.6,0.7,0.9,1.1c0.8,1,1.6,2.1,2.4,3.1l0,0
	c0,0,0,0,0.1,0.1c0.1,0.2,0.3,0.5,0.5,0.7c0.1,0.2,0.2,0.4,0.4,0.5c0,0,0,0.1,0,0.1c0,0,0,0,0,0.1c0,0,0,0.1,0,0.1c0,0,0,0.1,0,0.1
	c0.2,1.4-0.7,2.4-2,2.4c0,0,0,0,0,0c-0.3,0-0.5-0.2-0.7-0.4c-0.3-0.3-0.5-0.6-0.8-0.9c0,0,0,0,0,0c0-0.1-0.1-0.1-0.1-0.1
	c0-0.1-0.1-0.1-0.1-0.2c0-0.1-0.1-0.2-0.2-0.2c0,0,0-0.1-0.1-0.1c0,0,0-0.1-0.1-0.1c0,0,0,0,0,0c-0.1-0.1-0.1-0.2-0.2-0.3
	c0,0,0-0.1,0-0.1c-0.1-0.2-0.2-0.3-0.3-0.4l0,0c0-0.1,0-0.1-0.1-0.1c0,0,0,0,0,0c0-0.2-0.2-0.3-0.3-0.4c0,0,0,0,0,0
	c0-0.1-0.1-0.2-0.2-0.2c-0.5-0.7-1.1-1.5-1.6-2.2C63.4,12.6,63.2,12.2,63.2,11.8z"/>
<path d="M60.3,75.3c0.5,0.4,1,0.9,1.3,1.5c0.2,0.4,0.3,0.7,0.2,1.1c0,0.7-0.4,1.3-1.1,1.5c-0.1,0-0.2,0.1-0.4,0.2
	c-0.7,0.1-1.3,0.1-2-0.1c-0.1,0-0.2-0.1-0.2,0c-0.1,0.1,0,0.2,0.1,0.2c0.1,0.2,0.3,0.3,0.5,0.4c0,0.1,0.1,0.1,0.2,0.1
	c0,0,0.1,0,0.1,0c0,0.2,0.2,0.3,0.3,0.3c0.5,0.2,1,0.5,1.6,0.4c0.2,0,0.2,0.1,0.1,0.2c-0.5,0.6-1,1.1-1.7,1.5c-0.1,0-0.2,0.1-0.2,0
	c-0.1-0.1,0-0.2,0-0.2c0.1-0.3,0.1-0.5,0-0.8c-0.2-0.7-0.7-1.2-1.1-1.7c-0.1-0.1-0.2-0.2-0.3-0.1c-0.1,0.1-0.1,0.2,0,0.3
	c0.1,0.5,0.2,1,0.1,1.5c-0.3,1.1-1.1,1.7-2.3,1.4c-1.2-0.2-2.3-1.3-2.4-2.5c-0.1-0.6,0.2-1.1,0.8-1.4c0.4-0.2,0.8-0.3,1.2-0.4
	c-0.1-0.2-0.2-0.1-0.4-0.1c-0.4,0-0.8-0.1-1.1-0.3c-0.8-0.5-1-1.3-0.6-2.1c0.4-0.8,1.1-1.4,2-1.8c0.5-0.2,1-0.1,1.4,0.2
	c0.7,0.6,0.9,1.4,1.1,2.2c0.1-0.1,0.2-0.2,0.2-0.2c0.2-1.4,0.9-1.9,2.3-1.4c0,0,0,0,0,0C60.1,75.2,60.2,75.3,60.3,75.3z"/>
<path d="M36.5,82.7C36,83,35.6,83.3,35,83.4c-1.3,0.2-1.9-0.5-2.2-1.8c-0.1-0.4-0.1-0.9,0.1-1.4c0-0.1,0.1-0.3-0.1-0.3
	c-0.1,0-0.2,0.1-0.3,0.2c-0.6,0.8-1.1,1.6-1,2.7c0.1,0.4-0.2,0.1-0.3,0.1c-0.3-0.2-0.5-0.5-0.8-0.7c-0.2-0.2-0.5-0.4-0.6-0.7
	c-0.1-0.1-0.2-0.2-0.1-0.3c0.1-0.1,0.2,0,0.3,0c0.4,0.1,0.8-0.1,1.2-0.3c0.5-0.3,0.9-0.7,1.3-1.1c0.1-0.1,0.2-0.2,0.1-0.3
	c-0.1-0.1-0.2,0-0.3,0c-0.5,0.2-1.1,0.3-1.7,0.2c-1.1-0.2-1.7-1.1-1.5-2.2c0.2-1,0.8-1.8,1.7-2.2c0.9-0.4,1.7-0.1,2.2,0.7
	c0.1,0.3,0.2,0.6,0.4,0.9c0.1,0,0.1-0.1,0.1-0.2c-0.1-0.8,0.2-1.4,0.8-1.8c0.7-0.4,1.4-0.2,2,0.2c0.5,0.3,0.9,0.7,1.3,1.2
	c0,0,0,0,0,0c0,0.1,0,0.1,0.1,0.2c0.4,0.7,0.3,1.4-0.3,2c-0.2,0.2-0.4,0.3-0.5,0.4c-0.1,0-0.1,0.1-0.2,0.1c-0.4,0.1-0.7,0.2-1.1,0.4
	c0.4,0.1,0.9,0.1,1.2,0.3c0.8,0.6,0.9,1.3,0.5,2.1C37.1,82.1,36.8,82.4,36.5,82.7z"/>
<path d="M44.8,65.2c0.1,0,0.1-0.1,0.2-0.1c0.8,0.2,1.6-0.1,2.5-0.3c0.1,0,0.2-0.1,0.3,0.1c0.1,0.9,0.1,1.7,0.2,2.6
	c0,0.2,0,0.3-0.3,0.4c-0.8,0.2-1.5,0.4-2.3,0.5c-0.1,0-0.2,0.1-0.3-0.1C45,67.3,44.9,66.2,44.8,65.2z"/>
<path d="M48.8,64.6c0.7-0.3,1.5-0.5,2.2-0.7c0.1,0,0.1,0,0.2,0c0.2,0.8,0.4,1.7,0.8,2.5c0,0.1,0.1,0.2-0.1,0.2c-1,0.3-2,0.7-3.1,0.9
	c0-0.7,0-1.3-0.1-2C48.8,65.2,48.8,64.9,48.8,64.6z"/>
<path d="M40.8,64.5c0.3-0.3,0.5,0,0.8,0.1c0.6,0.1,1.1,0.3,1.7,0.4c-0.1,1-0.3,2-0.4,3.1c-0.8-0.3-1.6-0.6-2.4-0.9
	c-0.1,0-0.1-0.1-0.1-0.2C40.5,66.1,40.6,65.3,40.8,64.5z"/>
<path d="M51.7,71.1c-0.1,0.5-0.5,0.5-0.9,0.6c-0.5,0.2-1,0.1-1.5,0.3c-0.2,0-0.4,0-0.5,0c0.4-0.9,0.5-1.9,0.9-2.9
	c0.1-0.2,0.2-0.4,0.5-0.3c0.3,0,0.7,0,1-0.1c0.2,0,0.3,0.1,0.3,0.3c-0.1,0.6-0.2,1.2-0.1,1.7C51.3,70.8,51.2,71.2,51.7,71.1z"/>
<path d="M37.5,63.5c0.8,0.1,1.5,0.4,2.2,0.6c-0.2,0.9-0.5,1.7-0.7,2.6c-0.1,0.2-0.1,0.2-0.3,0.1c-0.5-0.4-1-0.7-1.6-1.1
	C37,65.7,37,65.6,37,65.4C37.2,64.8,37.3,64.1,37.5,63.5z"/>
<path d="M48.3,71.9c-0.7,0-1.5,0.1-2.2-0.1c0.2-0.8,0.3-1.6,0.3-2.4c0-0.2,0.1-0.2,0.2-0.2c0.5-0.1,1.1-0.2,1.6-0.2
	c0.2,0,0.2,0.1,0.2,0.2C48.4,70.1,48.3,71,48.3,71.9z"/>
<path d="M39.8,71.2c-0.3,0-0.5-0.1-0.7-0.3c-0.6-0.5-1.3-1-1.9-1.5c-0.1-0.1-0.1-0.1-0.2-0.2c-0.1-0.4,0-0.9,0-1.3
	c0-0.2,0.1-0.2,0.2-0.2c0.6,0.3,1.3,0.5,2,0.7c0.2,0.1,0.2,0.2,0.2,0.3C39.5,69.7,39.6,70.4,39.8,71.2z"/>
<path d="M45.2,71.8c-0.7,0-1.5,0.1-2.2,0c0.1-0.8,0.3-1.5,0.3-2.3c0-0.1,0.1-0.2,0.2-0.2c0.5,0,1.1,0,1.6-0.1c0.2,0,0.2,0.1,0.2,0.3
	C45.2,70.3,45.2,71.1,45.2,71.8z"/>
<path d="M53.9,68.7c-0.2,0.1-0.3,0.3-0.4,0.4c-0.5,0.5-1,1-1.4,1.6c-0.1,0.1-0.2,0.1-0.3,0.2c0.2-0.7,0.3-1.4,0.3-2.1
	c0-0.1,0-0.2,0.1-0.2c0.5-0.6,1-1.2,1.6-1.9C53.9,67.4,53.9,68.1,53.9,68.7z"/>
<path d="M52.5,63.4c0.5-0.2,1-0.4,1.5-0.7c0.1-0.1,0.2,0,0.3-0.1c0.1,0.3,0.3,0.6,0.4,0.9c0.1,0.4-0.3,1.1-0.8,1.2
	c-0.3,0.1-0.6,0.1-0.9,0.2c-0.2,0-0.3,0-0.4-0.2C52.7,64.3,52.6,63.8,52.5,63.4z"/>
<path d="M33.4,61.5c0.4,0.2,0.7,0.5,1.1,0.6c0,0.6-0.2,1.2-0.1,1.8c0.1,0.4,0.2,0.8,0.6,1c0.1,0.1,0.3,0.2,0.4,0.3
	c0.5,0.3,0.8,0.7,0.6,1.4c0,0.1,0,0.2,0,0.2c-0.1,0.3,0,0.6-0.1,0.9c-0.6-1-1.1-2.1-1.6-3.2c-0.3-0.7-0.6-1.4-0.8-2.2
	c0-0.2-0.1-0.2-0.3-0.2c0,0,0,0,0,0c0,0,0-0.1,0-0.1C33.3,61.9,33.3,61.7,33.4,61.5z"/>
<path d="M42.4,71.8c-0.4,0.1-0.7-0.1-1.1-0.2c-0.4-0.1-0.7-0.2-1.1-0.3c0.1-1,0.8-1.7,1.4-2.5C41.9,69.9,42.1,70.9,42.4,71.8z"/>
<path d="M57.4,61.5c-0.6,0.4-0.7,1-1,1.6c-0.4,1-0.8,2-1.2,3c-0.2,0.4-0.3,0.8-0.6,1.1c0-0.5,0-1,0-1.5c0-0.1,0.1-0.2,0.1-0.3
	c0.2-0.2,0.3-0.4,0.5-0.7c0.7-0.9,1-2,0.9-3.2c0,0,0.1,0,0.1,0c0.4,0,0.7-0.4,1-0.5c0,0,0.1,0,0.1,0C57.4,61.2,57.4,61.4,57.4,61.5z
	"/>
<path d="M35.3,62.5c0.5,0.2,0.9,0.5,1.4,0.6c-0.1,0.4-0.2,0.7-0.3,1.1c-0.1,0.2-0.1,0.3-0.3,0.1c-0.3-0.2-0.5-0.4-0.8-0.6
	c-0.2-0.1-0.2-0.3-0.2-0.5C35.2,62.9,35.3,62.7,35.3,62.5z"/>
<path d="M23.5,17.5c-0.4-0.1-0.8-0.2-1.1-0.4c-0.6-0.3-0.9-1.2-0.7-1.8c0-0.1,0.1-0.2,0.1-0.3c0.6-0.8,1.3-1.4,1.8-2.1
	c0.5-0.6,1-1.2,1.5-1.7c0.6-0.6,1.1-1.2,1.8-1.7c0.1-0.1,0.2-0.1,0.4-0.1c0.6-0.1,1.1,0.1,1.4,0.6c0.3,0.5,0.6,0.9,0.8,1.4
	c-0.2,0.7-0.6,1.1-1.1,1.6c-0.9,1-1.9,2-2.8,3c-0.4,0.5-0.9,0.9-1.3,1.3c-0.1,0-0.3,0-0.4,0.1c-0.1,0-0.1,0-0.2,0c0,0-0.1,0-0.1,0
	C23.6,17.5,23.5,17.5,23.5,17.5z"/>
<path d="M52.6,81.8c-0.2-0.4-0.6-0.6-0.8-0.9c-0.3-0.7-0.9-0.9-1.6-1.1c-0.3-0.1-0.5-0.1-0.7-0.3c-1.5-0.1-3,0.8-3.6,2.1
	c-0.1,0.1-0.2,0.2-0.3,0.3c0.1-0.7,0.1-1.5,0.3-2.2c0.2-0.8,0.5-1.6,1.4-2c0.2-0.1,0.1-0.2,0-0.3c-0.3-0.2-0.7-0.2-1-0.2
	c-0.8-0.1-1.5-0.1-2.3,0c-0.2,0-0.5,0.1-0.7,0.1c-0.1,0-0.2,0.1-0.2,0.1c0,0.1,0.1,0.2,0.1,0.2c0.3,0.2,0.5,0.5,0.8,0.7
	c0.1,0,0.2,0,0.2,0.1c0.5,1,1,2,0.9,3.1c0,0.1,0,0.3-0.1,0.3c-0.1,0-0.3,0-0.4-0.2c-0.5-0.7-1-1.3-1.9-1.6c-0.6-0.2-1.2-0.3-1.9-0.2
	c-0.4,0-0.8,0-1.1,0.4c-0.1,0.1-0.3,0-0.4,0c-0.5,0.3-0.9,0.8-1.2,1.3l0,0c-0.5,1-0.7,2.1-0.6,3.3c0,0.6,0.3,1.1,0.6,1.6
	c0.4,0.5,0.9,1,1.4,1.4c1.5,0.9,3.1,1.8,4.3,3c0.1,0.1,0.1,0.1,0.2,0.2l0,0c0.1,0,0.1,0.1,0.2,0.2l0,0c0,0,0,0.1,0.1,0.1
	c0,0,0,0,0,0c0.4,0.3,0.6,0.7,0.9,1.1c0.3,0,0.5-0.2,0.6-0.4c0.1-0.2,0.1-0.4,0.4-0.5c0.1,0,0.1-0.1,0.2-0.2c0-0.1,0.1-0.1,0.3-0.1
	c0,0,0,0,0,0c0,0-0.1-0.1,0-0.1c0,0,0.1,0,0.2,0l0,0c-0.1-0.3,0.1-0.4,0.3-0.5c0.1-0.1,0.2-0.1,0.3-0.2c0.4-0.4,0.8-0.8,1.4-1
	c0.2-0.1,0.4-0.3,0.7-0.4c0.1-0.1,0.2-0.1,0.3-0.1c0.6-0.2,1-0.6,1.5-0.9c2.2-1.6,2.4-3.8,1.4-6.1C52.7,81.9,52.6,81.9,52.6,81.8z"
	/>
<path d="M53.5,69.1c-0.5,0.5-1,1-1.4,1.6c-0.1,0.1-0.2,0.1-0.3,0.2c0,0.1-0.1,0.1-0.1,0.2c-0.1,0.5-0.5,0.5-0.9,0.6
	c-0.5,0.2-1,0.1-1.5,0.3c-0.2,0-0.4,0-0.5,0c-0.2,0.3-0.3,0.7-0.5,1c-0.1-0.3,0.1-0.6,0-0.9c-0.7,0-1.5,0.1-2.2-0.1
	c0,0.1-0.1,0.1-0.1,0.2c-0.1,0.3-0.2,0.6-0.5,0.7c-0.2,0.1-0.4,0.2-0.4-0.1c0-0.3,0-0.5,0-0.8c-0.7,0-1.5,0.1-2.2,0
	c-0.1,0.2-0.1,0.4-0.2,0.5c-0.1-0.2-0.2-0.4-0.3-0.5c-0.4,0.1-0.7-0.1-1.1-0.2c-0.4-0.1-0.7-0.2-1.1-0.3c0,0.1,0,0.2,0,0.4
	c-0.3-0.1-0.4-0.3-0.5-0.5c-0.3,0-0.5-0.1-0.7-0.3c-0.6-0.5-1.3-1-1.9-1.5c-0.1-0.1-0.1-0.1-0.2-0.2c0,0.6,0,1.1,0,1.7
	c0.1,1.4,0.3,2.8,1.1,4c0.1,0.1,0.1,0.1,0.1,0.2c0.3,0.4,0.7,0.8,1,1.2c0.2,0.2,0.4,0.3,0.6,0.2c0.8-0.1,1.5-0.1,2.3-0.2
	c0.1,0,0.1,0,0.2,0c0.1-0.1,0.3-0.1,0.4-0.1c0.6,0,1.2-0.1,1.8-0.1c2.3,0,4.5-0.1,6.8,0c0.1,0,0.2-0.2,0.3-0.3
	c0.4-0.8,0.8-1.5,1.2-2.3c0.8-1.5,1.4-3.1,1.2-4.8C53.7,68.8,53.6,69,53.5,69.1z"/>
<path d="M57.4,61.5c-0.6,0.4-0.7,1-1,1.6c-0.4,1-0.8,2-1.2,3c-0.2,0.4-0.3,0.8-0.6,1.1c-0.1,0.8,0,1.6-0.1,2.4
	c0.3-0.2,0.4-0.5,0.5-0.7c0.4-1,0.8-1.9,1.3-2.8c0.4-0.7,0.9-1.3,1.2-2c0-0.6,0-1.3,0-1.9C57.5,61.9,57.4,61.7,57.4,61.5z"/>
<path d="M79.4,18.7c-0.1,0-0.2,0-0.1,0.1c0,0.1,0.1,0.1,0.1,0.1c0.1,0,0.1-0.1,0.1-0.2C79.5,18.7,79.5,18.7,79.4,18.7z"/>
<path d="M3.4,20.7c-0.4,1.5-0.7,3.1-0.8,4.6c0,0.1,0,0.1-0.1,0.2l0,0c0,0.7-0.1,1.4-0.1,2.1c0,1.1,0,2.3,0.2,3.4
	c0.1,0,0.1-0.1,0.1-0.2c-0.1-0.3-0.1-0.7-0.1-1c0-0.3,0-0.6-0.1-0.9c-0.1-0.1,0-0.4,0.1-0.5l0,0c0,0,0-0.1,0-0.1c0,0,0,0,0,0
	c0,0,0,0.1,0,0.1c-0.1-0.1-0.1-0.2-0.1-0.3c0.3-0.8,0.1-1.7,0.1-2.5c-0.1-0.2,0.1-0.4,0.1-0.6c0-0.8,0.1-1.5,0.4-2.3
	c0.1-0.3,0-0.7,0.1-1c0.2-0.7,0.4-1.3,0.5-2c0.1-0.3,0.2-0.6,0.2-1C3.7,19.4,3.6,20,3.4,20.7z"/>
<path d="M4.7,19.8c0,0-0.1-0.1-0.2,0c-0.1,0.1,0,0.1,0,0.2c0.1,0.1,0.2,0.2,0.4,0.3C4.9,20,4.8,20,4.7,19.8z"/>
<path d="M34.7,58.7c-0.2,0-0.4,0.1-0.5,0.1c-0.1,0-0.1,0-0.2,0c-0.2,0.1-0.4,0.2-0.6,0.2c0,0.2,0,0.4,0,0.6c0,0.6,0,1.2-0.1,1.8
	c0.4,0.2,0.7,0.5,1.1,0.6c0-0.2,0-0.4,0.1-0.6c0.1-0.8,0.3-1.7,0.5-2.5C35.1,58.6,35.1,58.6,34.7,58.7z"/>
<polygon points="65.3,49.3 65.3,49.3 65.3,49.3 "/>
<polygon points="65.3,49.3 65.3,49.3 65.3,49.3 "/>
<path d="M65.2,49.3C65.2,49.3,65.2,49.3,65.2,49.3C65.2,49.3,65.2,49.2,65.2,49.3z"/>
<path d="M21.8,15.1c0.6-0.8,1.3-1.4,1.8-2.1c0.5-0.6,1-1.2,1.5-1.7c0.6-0.6,1.1-1.2,1.8-1.7c0.1-0.1,0.2-0.1,0.4-0.1
	c-0.4-0.9-0.9-1.7-1.6-2.4c-0.4-0.4-0.8-0.7-1.3-1c-0.1,0-0.2,0-0.2-0.1c-0.1,0-0.3-0.1-0.4-0.1c0.1,0,0.3,0.1,0.4,0.1
	c0-0.1-0.1-0.1-0.2-0.2c-0.3-0.1-0.6-0.2-0.8-0.4c-0.4-0.1-0.8-0.2-1.2-0.3c-1.4-0.3-2.8-0.2-4.2,0c-1.3,0.1-2.5,0.3-3.7,0.7
	c-0.1,0.2-0.3,0.1-0.5,0.1c-1.3,0.4-2.4,0.9-3.5,1.7c-0.7,0.5-1.3,1-1.8,1.7C8.2,9.3,8.1,9.4,8,9.5c-1.6,2-2.4,4.4-3.2,6.8
	c0,0.1-0.1,0.1-0.1,0.2C4.4,17.2,4.2,18,4,18.7c0.1,0.4-0.1,0.7-0.2,1c-0.1,0.7-0.4,1.3-0.5,2c-0.1,0.3,0,0.7-0.1,1
	c-0.2,0.7-0.3,1.5-0.4,2.3c0,0.2-0.2,0.4-0.1,0.6h0c-0.1,0.8,0.1,1.7-0.1,2.5c0,0.1,0,0.2,0.1,0.3c0,0,0-0.1,0-0.1c0,0,0,0,0,0
	c0,0,0,0.1,0,0.1c-0.1,0.2-0.1,0.4-0.1,0.5c0.2,0.3,0.1,0.6,0.1,0.9c0,0.3,0,0.7,0.1,1c0,0.1,0,0.2-0.1,0.2c0,0.6,0.1,1.2,0.3,1.8
	C3,32.5,3,32.2,3,32c0.1-1.4,0.4-2.8,0.6-4.2c0.1-0.5,0.1-1,0.3-1.5c0.1-0.2,0.1-0.4,0.3-0.6c-0.1,1.4,0.2,2.7,0.4,4.1
	c0.1-0.2,0.2-0.4,0.2-0.6c0.1-0.3,0.2-0.6,0.2-1c0.2-0.6,0.3-1.2,0.6-1.7c0.2-0.6,0.5-1.2,0.7-1.8c0.1-0.4,0.4-0.7,0.5-1.1
	c0,0,0,0,0,0v0c0.3-0.4,0.5-0.9,0.7-1.4C7.8,22,8.1,21.8,8,21.4c0.2,0,0.1-0.3,0.3-0.3c0,0.3,0,0.6-0.1,0.8
	c-0.2,1.4-0.5,2.8-0.4,4.2C8,26.9,8,27.6,8.1,28.4c0.1,0.6,0.3,1.2,0.4,1.8h0c0,0.2,0,0.7,0.1,0.6c0.3-0.1,0.1-0.4,0.2-0.6
	c0.2-1.5,0.8-2.9,1.6-4.2c0.1-0.2,0.2-0.3,0.3-0.5h0c0.1-0.2,0.3-0.2,0.4-0.4c0,0,0-0.1,0-0.1c0,0,0,0,0,0c0.1,0,0.2,0,0.3,0
	c0,0,0-0.1,0.1-0.1c0.2-0.5,0.4-0.9,0.6-1.4c0.4-0.9,1.1-1.7,1.7-2.5c0.8-1,1.7-1.9,2.6-2.7c0.2-0.2,0.3-0.3,0.5-0.5
	c1.3-1.1,2.6-2.1,4.3-2.5C21.3,15.1,21.5,15.1,21.8,15.1z M4.9,20.2c-0.1-0.1-0.2-0.2-0.4-0.3c0,0-0.1-0.1,0-0.2
	c0.1-0.1,0.1,0,0.2,0C4.8,20,4.9,20,4.9,20.2z M10.7,23.9C10.7,23.9,10.7,23.9,10.7,23.9C10.7,23.9,10.6,23.9,10.7,23.9
	C10.6,23.9,10.7,23.9,10.7,23.9C10.7,23.9,10.7,23.9,10.7,23.9z M11,18.1C11,18.1,11,18.1,11,18.1C11,18.1,11,18.1,11,18.1
	C11,18.1,11,18.1,11,18.1C11,18.1,11,18.1,11,18.1z M11.6,21.1C11.6,21.1,11.6,21.1,11.6,21.1C11.6,21.1,11.6,21.1,11.6,21.1
	C11.6,21.1,11.6,21.1,11.6,21.1C11.6,21.1,11.6,21.1,11.6,21.1z M12.7,19.9C12.7,19.9,12.7,19.9,12.7,19.9
	C12.7,19.9,12.7,19.9,12.7,19.9z"/>
<path d="M33.6,62.4c0-0.2-0.1-0.2-0.3-0.2c0,0.1,0,0.1,0,0.2c0,0.7-0.1,1.5-0.1,2.2c0,0.1,0,0.3,0.1,0.4c0.7,1.4,1.8,2.5,2.7,3.8
	c0-0.4,0-0.7,0-1.1c-0.6-1-1.1-2.1-1.6-3.2C34.1,63.8,33.8,63.1,33.6,62.4z"/>
<path d="M45.2,81.6c0.1-1.1-0.4-2.1-0.9-3.1c-0.1-0.1-0.1-0.1-0.2-0.1c0.6,1,1,2.1,1,3.4c-0.7-1-1.5-1.7-2.7-2
	c-0.6-0.2-1.3-0.1-1.9,0c-0.4,0.2-0.8,0.3-1.1,0.6c0.2,0,0.4,0.2,0.4,0c0.3-0.4,0.7-0.4,1.1-0.4c0.6,0,1.3,0,1.9,0.2
	c0.8,0.3,1.4,0.9,1.9,1.6c0.1,0.1,0.2,0.2,0.4,0.2C45.2,81.9,45.2,81.7,45.2,81.6z"/>
<path d="M56.4,58c-0.4-0.1-0.4-0.2-0.4,0.3c0,1.1,0.1,2.3,0.1,3.4c0,0,0.1,0,0.1,0c0-0.7,0-1.4,0-2.1c-0.1,0,0,0.1-0.1,0.1
	c0-0.4,0-0.8,0-1.2c0-0.2,0.1-0.3,0.3-0.2c0.2,0.1,0.5,0.2,0.6,0.4c0.1,0.2,0,0.3,0,0.5c0,0.7,0.3,1.3,0.2,2c0,0,0.1,0,0.1,0
	c0-0.1,0-0.1,0-0.2c-0.1-0.5-0.2-1.1-0.2-1.6C57.2,58.6,57.1,58.2,56.4,58z"/>
<path d="M49.6,79.6c0.2,0.2,0.4,0.2,0.7,0.3c0.7,0.1,1.2,0.4,1.6,1.1c0.2,0.3,0.6,0.5,0.8,0.9c0,0,0.1,0,0.2,0
	C52.1,80.5,51.1,79.7,49.6,79.6z"/>
<path d="M49.5,88.9c-0.2,0.2-0.4,0.3-0.7,0.4c-0.5,0.2-1,0.6-1.4,1c-0.1,0.1-0.2,0.2-0.3,0.2c-0.2,0.1-0.4,0.2-0.3,0.5
	c0.8-0.8,1.8-1.4,2.7-2c0.1-0.1,0.2-0.1,0.2-0.2C49.7,88.8,49.6,88.8,49.5,88.9z"/>
<path d="M46.4,91.4c0,0.1-0.1,0.2-0.2,0.2c-0.3,0.1-0.3,0.3-0.4,0.5c-0.1,0.2-0.2,0.4-0.6,0.4c0.1,0.1,0.1,0.3,0.2,0.4
	c0.3-0.7,0.8-1.2,1.2-1.7C46.5,91.2,46.4,91.2,46.4,91.4z"/>
<path d="M46.7,91.2c0-0.1,0.1-0.1,0.1-0.2c-0.1,0-0.2,0-0.2,0C46.5,91.2,46.6,91.2,46.7,91.2z"/>
<polygon points="57.9,20.8 57.9,20.8 57.9,20.8 "/>
<polygon points="58.3,21 58.3,21 58.3,21 "/>
<polygon points="28.8,25 28.8,25 28.8,25 "/>
<polygon points="28.9,24.8 28.9,24.8 28.9,24.8 "/>
<polygon points="53.7,44 53.7,44 53.7,44 "/>
<path d="M90.4,21c-0.1-1-0.3-2.1-0.5-3.1c-0.7-2.8-1.6-5.5-3.3-7.9c-0.1-0.1-0.2-0.2-0.2-0.3l0,0c-0.5-0.5-1-1.1-1.6-1.4
	c-0.2-0.2-0.5-0.4-0.8-0.6l0,0l0,0c-0.1,0-0.1-0.1-0.2-0.1l0,0c-0.2-0.1-0.4-0.3-0.7-0.4c-1.1-0.6-2.2-1-3.3-1.4l0,0l0,0
	c-1.1-0.3-2.1-0.5-3.3-0.7C75.1,5,73.7,5,72.2,5.2l0,0c-0.5,0.1-1,0.3-1.5,0.4c-1.1,0.5-2,1.3-2.7,2.2c-0.7,0.8-1.3,1.7-1.9,2.7
	c0.3,0.4,0.6,0.7,0.9,1.1c0.8,1,1.6,2.1,2.4,3.1v0l0,0c0,0,0,0,0.1,0.1c0.1,0.2,0.3,0.5,0.5,0.7c0.1,0.2,0.2,0.4,0.4,0.5
	c0,0,0,0.1,0,0.1c0,0,0,0,0,0.1c0,0,0,0.1,0,0.1c0.9-0.1,1.7-0.1,2.6,0.1c0.4,0.1,0.8,0.1,1.1,0.3c0.3,0.1,0.7,0.1,1,0.3
	c1.8,0.5,3.4,1.3,4.4,2.9c0.1,0.1,0.1,0.3,0.3,0.4c0,0.1,0,0.1,0,0.2c0.1-0.1,0-0.1,0-0.2c0-0.2-0.1-0.3-0.1-0.6
	c0.1,0,0.1,0.1,0.2,0.1c1.1,0.9,2,1.9,2.8,3.1c0.9,1.4,1.4,2.8,1.9,4.4c0.1,0.2,0.1,0.4,0.2,0.6c0.6-3.3,0.3-6.4-0.5-9.6
	c0,0,0.1,0,0.1,0c0.1,0.3,0.3,0.5,0.4,0.8c0.2,0.3,0.3,0.6,0.5,0.9c0.6,1.1,1.1,2.4,1.6,3.6c0.1,0,0.1,0.1,0.2,0.1
	c0,0-0.1-0.1-0.2-0.1c0.1,0.3,0.2,0.6,0.3,0.8c0.3,0.8,0.5,1.7,0.7,2.5c0,0,0,0,0,0v0l0,0l0,0c0,0.4,0.1,0.7,0.1,1.2
	c0.1-0.2,0.1-0.3,0.1-0.5c0.1-0.6,0.1-1.2,0.1-1.9c0-0.2-0.1-0.5,0.2-0.6c0,0,0-0.1,0-0.1c-0.3-0.2-0.1-0.5-0.2-0.7
	c0.1-0.5-0.1-1-0.1-1.6c0.3,0.3,0.5,0.7,0.6,1c0.4,0.9,0.8,1.8,1,2.7c0,0.1,0.1,0.1,0.1,0.2c0.1-0.2,0-0.4,0.1-0.5
	c0.1-0.6,0.1-1.2,0.2-1.7C90.5,23.3,90.4,22.1,90.4,21z M70.9,15.6C70.9,15.6,70.9,15.6,70.9,15.6C70.9,15.6,70.9,15.6,70.9,15.6z
	 M71.2,11.7L71.2,11.7C71.2,11.7,71.2,11.7,71.2,11.7C71.2,11.7,71.2,11.7,71.2,11.7z M79.4,19c-0.1,0-0.1-0.1-0.1-0.1
	c0-0.1,0.1-0.1,0.1-0.1c0.1,0,0.1,0,0.1,0.1C79.5,18.9,79.5,19,79.4,19z M84,8c0,0.1,0.1,0.1,0.1,0.1C84.1,8.1,84.1,8,84,8z M88,26
	c0,0.1,0,0.1,0,0.2C88,26.1,88,26.1,88,26z M88,26.9c0.2,0,0.2-0.1,0.2-0.1C88.2,26.9,88.2,27,88,26.9z"/>
<path d="M68.5,18.7c-0.3,0-0.5-0.2-0.7-0.4c-0.3-0.3-0.5-0.6-0.8-0.9l0,0c0,0,0,0,0,0l0,0c0-0.1-0.1-0.1-0.1-0.1
	c0-0.1-0.1-0.1-0.1-0.2h0c0-0.1-0.1-0.2-0.2-0.2c0,0,0-0.1-0.1-0.1c0,0,0-0.1-0.1-0.1l0,0l0,0c-0.1-0.1-0.1-0.2-0.2-0.3
	c0,0,0-0.1,0-0.1l0,0c-0.1-0.2-0.2-0.3-0.3-0.4l0,0h0c0-0.1,0-0.1-0.1-0.1c0-0.2-0.2-0.3-0.3-0.4l0,0l0,0c0-0.1-0.1-0.2-0.2-0.2
	c-0.5-0.7-1.1-1.5-1.6-2.2c-0.3-0.4-0.4-0.8-0.4-1.2c-0.2-0.2-0.3-0.3-0.5-0.5c-0.1-0.1-0.3-0.2-0.4-0.3c0,0,0,0,0,0
	c-0.4-0.3-0.7-0.7-1.2-0.8c0,0,0,0,0,0c0,0,0,0,0,0c0-0.2-0.2-0.2-0.3-0.3c-1-0.6-2.1-1.1-3.2-1.5c0,0-0.1,0-0.1,0
	c-0.2-0.1-0.5-0.2-0.7-0.3c-1.1-0.3-2.3-0.6-3.5-0.7c-1.9-0.2-3.8,0-5.6,0.7c-0.2,0.1-0.4,0.2-0.6,0.3c0.2,0,0.4,0,0.5-0.1
	c-0.2,0-0.3,0.1-0.5,0.1c-0.7,0.3-1.4,0.7-2,1.2c0,0,0,0,0,0c-0.2,0.1-0.3,0.2-0.5,0.4c-0.2,0.3-0.4,0.3-0.7,0
	c-0.1,0-0.2-0.1-0.3-0.1l0,0c-0.5-0.2-0.9-0.5-1.4-0.6c-0.1,0-0.2-0.1-0.3-0.1c0,0,0,0,0,0c0,0,0,0,0,0l0,0c0,0,0,0,0,0
	c0,0-0.1,0-0.1,0l0,0c-0.9-0.3-1.8-0.5-2.7-0.6c-1.5-0.1-2.9,0.1-4.4,0.4C34.6,9,34.5,9,34.4,9c-0.2,0.1-0.4,0.1-0.6,0.2
	c-0.2,0.1-0.5,0.2-0.7,0.3l0,0c-0.8,0.4-1.5,0.7-2.3,1.2l0,0c-0.2,0.1-0.4,0.3-0.7,0.4l0,0c-0.2,0.1-0.4,0.3-0.6,0.4
	c-0.2,0.7-0.6,1.1-1.1,1.6c-0.9,1-1.9,2-2.8,3c-0.4,0.5-0.9,0.9-1.3,1.3c-0.1,0-0.3,0-0.4,0.1c-0.1,0-0.1,0-0.2,0c0,0,0,0,0,0
	c0,0-0.1,0-0.1,0c0,0,0,0,0,0c0,0,0,0,0,0l0,0c0,0,0,0.1-0.1,0.1c0,0,0,0,0,0l0,0c-0.2,0.2-0.3,0.4-0.4,0.6c-0.4,0.5-0.7,1.1-1,1.6
	c0,0.1-0.1,0.2-0.1,0.3c-0.4,0.8-0.9,1.6-1.2,2.5c0,0,0,0,0,0c-0.4,0.9-0.7,1.9-1,2.9c0,0,0,0.1,0,0.1c0,0.1-0.1,0.3-0.1,0.4
	c0,0.1,0,0.1,0,0.2c-0.1,0.4-0.3,0.9-0.3,1.3l0,0c0,0,0,0.1,0,0.1c-0.5,2.8-0.6,5.7-0.2,8.5c0,0,0,0.1,0,0.1c0.3,1.4,0.5,2.8,1,4.1
	c0.5,1.3,0.9,2.6,1.7,3.8c1.1,1.5,2.5,2.6,3.9,3.8c0,0,0,0,0.1,0c0,0,0-0.1,0-0.1c-0.6-1.2-1.1-2.4-1.5-3.7c-0.6-2-0.9-4-1-6
	c0-1,0-2.1,0.2-3.1c0,0,0,0,0-0.1c0.1-0.6,0.1-1.1,0.3-1.6c0.3-1.5,0.8-3,1.6-4.3c0.1-0.1,0.1-0.2,0.2-0.4c0,0,0,0,0,0c0,0,0,0,0,0
	c0.4-0.5,0.7-1.1,1.1-1.6c0.3-0.4,0.6-0.7,0.9-1c0,0,0,0,0.1-0.1c0.4-0.4,0.8-0.8,1.2-1.1c0-0.1,0.1-0.1,0.2-0.1
	c0.1-0.2,0.2-0.2,0.4-0.3l0,0c0.1,0,0.1-0.1,0.2-0.1l0,0c0.1-0.1,0.2-0.1,0.3-0.2l0,0c0.1-0.1,0.3-0.2,0.4-0.3c0,0,0.1,0,0.1,0
	c0.3-0.2,0.6-0.3,0.9-0.5h0c0.4-0.1,0.6-0.3,1-0.4c3.3-1.4,6.5-1.2,9.4,0.9c1.3,0.9,2.4,2,3.5,3.2c0.1,0.1,0.1,0.1,0.2,0.2
	c0.3-0.9,0.8-1.8,1.3-2.6c0-0.1,0-0.2,0-0.3c0,0.1,0,0.2,0,0.3c0.6-0.8,1.4-1.6,2.2-2.3c0,0,0,0,0.1,0c0.1-0.2,0.2-0.2,0.4-0.3
	l0.7-0.5c0-0.1,0-0.1,0-0.2c0,0.1,0,0.1,0,0.2c0.6-0.4,1.3-0.8,2-1c0.5-0.2,1-0.2,1.5-0.3c0.1,0,0.1,0,0.2,0
	c0.6-0.1,1.3-0.1,1.9-0.1c0.9,0.1,1.7,0.2,2.5,0.6c0.1,0,0.3,0,0.4,0.1c0.8,0.3,1.6,0.8,2.3,1.3c0.2,0.1,0.3,0.2,0.4,0.3
	c0.2,0.1,0.3,0.2,0.4,0.3c0.3,0.3,0.7,0.5,1,0.8c0.5,0.5,1,0.9,1.4,1.4c0.3,0.2,0.5,0.5,0.7,0.8c0.2,0.2,0.4,0.4,0.5,0.6l0,0
	c0.1,0.1,0.1,0.2,0.2,0.3l0,0c0,0,0,0.1,0.1,0.1l0,0c0.2,0.2,0.3,0.4,0.5,0.7l0,0c0.1,0.1,0.2,0.2,0.2,0.4c0,0,0,0,0,0.1
	c0.3,0.3,0.5,0.7,0.7,1.1c0.6,0.9,1,1.9,1.2,3c0.1,0.1,0.1,0.3,0.1,0.4c0,0,0,0.1,0,0.1c0.2,0.7,0.3,1.4,0.4,2.1
	c0.1,0.8,0.2,1.7,0.1,2.5c0,0.9,0,1.9-0.2,2.8c-0.1,0.5-0.2,1.1-0.3,1.6c-0.1,0.5-0.1,1-0.4,1.4c0.1,0.1,0,0.1,0,0.2
	c-0.2,1-0.6,2-1,3c-0.4,1-0.9,2-1.4,3c-0.1,0-0.1,0.1,0,0.2c0-0.1,0.1-0.1,0.1-0.2c0.8-0.9,1.6-1.9,2.4-2.9c0.3-0.3,0.5-0.7,0.8-1
	c0.1-0.1,0.3-0.3,0.4-0.4c0.3-0.5,0.7-1,1.1-1.5c0,0,0-0.1,0.1-0.1c0,0,0,0,0,0c0.4-0.6,0.8-1.2,1.2-1.7c0.8-1.1,1.1-2.3,1.3-3.6
	c0-0.1,0-0.2,0.1-0.3c0.1-1.1,0.3-2.2,0.4-3.3c0.1-2.4,0.3-4.9-0.3-7.2C71.9,24,70.5,21.2,68.5,18.7z M19.5,27.2
	C19.5,27.2,19.5,27.1,19.5,27.2C19.5,27.1,19.5,27.2,19.5,27.2z M23.5,18C23.5,18,23.5,18.1,23.5,18C23.5,18.1,23.5,18,23.5,18
	c0.1-0.1,0.1-0.3,0-0.4l0,0c0,0,0-0.1,0.1-0.1l0,0c0,0,0,0.1-0.1,0.1C23.6,17.7,23.6,17.9,23.5,18z M24,17.5c0.1,0,0.2,0.1,0.2,0
	C24.1,17.5,24,17.5,24,17.5z M24.4,29c-0.1,0-0.1,0.1-0.1,0.1C24.3,29.1,24.4,29,24.4,29C24.5,29,24.5,29,24.4,29
	C24.5,29,24.5,29,24.4,29z M35.2,9c0,0-0.1,0-0.1,0C35.1,9,35.2,9,35.2,9c0.1,0,0.2,0,0.3-0.1C35.4,8.9,35.3,9,35.2,9z M34.9,9
	C34.9,9,34.9,9,34.9,9C34.9,9,34.9,9,34.9,9z M42.1,9.2c-0.1,0-0.1,0-0.2-0.1C42,9.2,42.1,9.2,42.1,9.2C42.2,9.2,42.2,9.2,42.1,9.2
	C42.2,9.2,42.2,9.2,42.1,9.2z M48.3,8.1L48.3,8.1L48.3,8.1L48.3,8.1z M64.1,21C64.1,21.1,64.1,21.1,64.1,21
	C64.1,21.1,64.1,21.1,64.1,21z M65.3,16C65.3,16,65.3,16,65.3,16C65.3,16,65.3,16,65.3,16z"/>
<path d="M65.8,46.6c0.1-0.3,0.2-0.6,0.3-0.9c0,0,0,0,0,0c0.2-0.5,0.3-1.1,0.4-1.6c0.2-0.7,0.3-1.3,0.4-2c0.1-0.5,0.1-1.1,0.2-1.6
	c0-0.3,0-0.6,0.1-0.9c0-0.1,0-0.3,0-0.4c-0.1-0.8,0.1-1.7,0-2.5c-0.1-1.4-0.2-2.9-0.6-4.2c-0.1-0.4-0.3-0.7-0.4-1.1
	c-0.4-1.1-1-2.1-1.6-3.1c-0.1-0.1-0.1-0.2-0.2-0.3c-0.1-0.2-0.3-0.3-0.4-0.5c-0.1-0.1-0.2-0.2-0.2-0.3l-0.6-0.7
	c-1-1.2-2.2-2.3-3.5-3.2c-0.5-0.4-1.1-0.7-1.7-1.1c-0.1,0-0.1,0-0.2,0c0,0,0,0,0,0c-1.7-0.9-3.5-1.1-5.4-0.7
	c-0.6,0.2-1.2,0.4-1.8,0.6c0,0,0,0,0,0c-0.4,0.2-0.8,0.4-1.1,0.7c-0.1,0.1-0.2,0.1-0.3,0.3c-0.4,0.1-0.6,0.4-0.9,0.6
	c-0.3,0.2-0.6,0.5-0.8,0.8c-0.7,0.6-1.2,1.3-1.6,2c-0.2,0.3-0.3,0.6-0.5,0.9c-0.2,0.4-0.2,0.4-0.5,0.1c-1-0.8-2-1.7-3.2-2.4
	c-1.3-0.8-2.6-1.5-4.2-1.7c-1-0.1-1.9,0-2.9,0.2c-1,0.2-1.9,0.6-2.8,1l0,0c-0.2,0.1-0.5,0.3-0.7,0.4c0,0,0,0-0.1,0
	c-0.2,0.1-0.3,0.2-0.5,0.3l0,0c0,0-0.1,0.1-0.1,0.1c0,0,0,0-0.1,0c-0.1,0.1-0.2,0.2-0.4,0.3l0,0l0,0c-0.4,0.3-0.8,0.6-1.1,1
	c0,0.1,0,0.2,0,0.3c0-0.1,0-0.2,0-0.3c-0.9,0.8-1.5,1.7-2.1,2.6c-0.1,0.1-0.1,0.2-0.2,0.2l0,0c-0.1,0.2-0.2,0.4-0.3,0.6
	c0,0,0,0.1,0.1,0.1c0,0-0.1-0.1-0.1-0.1c-0.3,0.6-0.5,1.3-0.9,1.9l0,0c-0.4,1.1-0.7,2.3-0.9,3.4c-0.1,0.4-0.1,0.8-0.2,1.2
	c0,0,0,0.1,0,0.1c0,0.3,0,0.6-0.1,0.9c-0.1,3.3,0.4,6.5,1.5,9.6c0.2,0.6,0.4,1.2,0.7,1.7c0.4,0.5,0.6,1,0.9,1.6
	c0.1,0.1,0.1,0.3,0.1,0.4c-0.2,1.8-0.3,3.6-0.5,5.4c0,0.1,0,0.2,0.1,0.3c0.7,0.6,1.3,1.2,2,1.9c0.2,0.2,0.4,0.2,0.6,0.2
	c0.5-0.1,1-0.1,1.5-0.2c0.5-0.1,1-0.2,1.5-0.2c0.3-0.1,0.6-0.1,0.9-0.1c0,0,0.1-0.1,0.1,0c0.1,0,0.3-0.1,0.4-0.1l0,0l0,0
	c0,0,0.1,0,0.1-0.1c0.6-0.1,1.3-0.2,2-0.3c-0.4,1.7-0.8,3.3-1.1,5c0.5,0.2,0.9,0.5,1.4,0.6c0.3-0.9,0.5-1.8,1.1-2.6c0,0.3,0,0.6,0,1
	c-0.1,0.7-0.2,1.4-0.3,2c0.8,0.1,1.5,0.4,2.2,0.6c0.3-0.9,0.6-1.9,1-2.9c0.1,0.3,0.1,0.5,0.1,0.7h0c0,0.3,0,0.5,0,0.8
	c0,0.6-0.1,1.2-0.1,1.7c0.3-0.3,0.5,0,0.8,0.1c0.6,0.1,1.1,0.3,1.7,0.4c0.2-1.2,0.4-2.5,0.8-3.7c0.2,0.5,0.3,1,0.4,1.5
	c0.1,0.7,0.2,1.5,0.4,2.2c0,0.1,0,0.1,0,0.2c0.1,0,0.1-0.1,0.2-0.1c0.8,0.2,1.6-0.1,2.5-0.3c0.1,0,0.2-0.1,0.3,0.1
	c0-1.3,0-2.5,0.5-3.7c0.1,0.2,0.2,0.4,0.2,0.7c0.2,0.9,0.2,1.8,0.4,2.7c0.7-0.3,1.5-0.5,2.2-0.7c0.1,0,0.1,0,0.2,0
	c-0.1-0.7-0.2-1.5,0-2.2c0.1-0.4,0.2-0.9,0.5-1.3c0.3,1,0.5,2,0.7,3c0.5-0.2,1-0.4,1.5-0.7c0.1-0.1,0.2,0,0.3-0.1
	c-0.1-0.4-0.3-0.8-0.4-1.3c-0.2-0.8-0.5-1.6-0.5-2.4c0-0.1-0.1-0.2,0.1-0.2c0.1,0,0.2,0.1,0.2,0.2c0.2,0.2,0.3,0.4,0.4,0.7
	c0.2,0.6,0.4,1.2,0.6,1.8c0.1,0.4,0.3,0.8,0.5,1.2c0.1-0.2,0.1-0.4,0.1-0.5c0.1-0.1,0-0.2,0-0.3c0-1.6-0.4-3.1-0.9-4.6l0,0
	c-0.1-0.3,0-0.3,0.2-0.3c0.6,0.1,1.1,0.2,1.7,0.3c0.8,0.2,1.6,0.6,2.4,0.8c0.8,0.2,1.6,0.5,2.4,0.8c0,0,0,0,0.1,0
	c0.5-0.5,0.9-1.1,1.4-1.6l0,0c0.1-0.2,0.3-0.3,0.4-0.5l0,0c0,0,0,0,0-0.1l0,0c0,0,0.1-0.1,0.1-0.1c0.1-0.2,0.2-0.4,0.4-0.6
	c0.2-0.3,0.2-0.6,0.2-0.9c-0.2-0.5-0.3-0.9-0.4-1.4c-0.2-1.1,0.1-2,0.9-2.9C64.8,49.2,65.4,48,65.8,46.6z M66.3,31.4
	c0,0.1-0.1,0.2-0.1,0.4C66.2,31.6,66.3,31.5,66.3,31.4c-0.2,0-0.3-0.2-0.4-0.4C66,31.2,66,31.3,66.3,31.4z M26.4,30.3L26.4,30.3
	L26.4,30.3c0,0.1,0.1,0.3,0.1,0.4C26.5,30.6,26.4,30.4,26.4,30.3z M47.4,54.4C47.4,54.4,47.4,54.4,47.4,54.4
	C47.4,54.4,47.4,54.4,47.4,54.4z M43.9,41.7L43.9,41.7c0.1,0,0.1-0.1,0.1-0.1C44,41.7,44,41.7,43.9,41.7z M44.1,46.4
	C44.1,46.4,44,46.4,44.1,46.4C44,46.4,44.1,46.4,44.1,46.4z M42.3,37.3c0.1,0,0.2,0.1,0.3,0.1C42.5,37.4,42.4,37.4,42.3,37.3
	L42.3,37.3z M42.3,37.3L42.3,37.3c-0.1-0.1-0.2-0.1-0.3-0.2C42.1,37.2,42.2,37.3,42.3,37.3z M41.6,34.6
	C41.6,34.6,41.5,34.6,41.6,34.6C41.5,34.6,41.6,34.6,41.6,34.6c0-0.1,0-0.1-0.1-0.2C41.5,34.4,41.5,34.5,41.6,34.6z M39.8,49.2
	C39.8,49.2,39.8,49.2,39.8,49.2C39.8,49.2,39.8,49.2,39.8,49.2z M39.8,49.4c0,0,0.1-0.1,0.1-0.1C39.8,49.3,39.8,49.4,39.8,49.4z
	 M39.7,49.4C39.7,49.4,39.7,49.4,39.7,49.4C39.7,49.4,39.7,49.4,39.7,49.4z M41.6,45.7c-0.1,0.1-0.1,0.2-0.2,0.3c0,0,0.1,0,0.1,0.1
	c0,0-0.1,0-0.1-0.1c-1,1.3-2.1,2.9-2.5,4.7c-0.3-1-1.1-1.3-1.9-1.7c-0.8-0.4-1.7-0.8-2.5-1.1c-0.3-0.1-0.7-0.2-0.9-0.5
	c-1.7-1.1-3.1-2.5-3.7-4.4c-0.5-1.5-0.1-2.9,1.2-4c0.3-0.3,0.7-0.4,1.1-0.5c0.9-0.3,1.7-0.3,2.6,0c0.6,0.3,0.9,0.8,1,1.4
	c0.1,0.4,0.1,0.8,0,1.3c0,0.3,0,0.4,0.3,0.5c0.4,0.2,0.7,0.4,1.1,0.6c0.1,0.1,0.2,0.2,0.2,0.3c0,0.7,0,1.4,0,2.1c0,0,0.1,0,0.1,0
	c0.1-0.6,0.2-1.2,0.3-1.7c0-0.2,0.1-0.4,0.1-0.6c0.1-0.3,0-0.6-0.3-0.7c-0.2-0.1-0.4-0.3-0.7-0.4c-0.3-0.1-0.4-0.3-0.4-0.5
	c0-0.6,0.1-1.2,0.3-1.8c0.2-0.7,0.7-1.2,1.3-1.5c1.5-0.6,2.9-0.5,4.4,0.2c0.5,0.3,0.9,0.7,1.2,1.2c0,0,0-0.1,0-0.1c0,0,0,0.1,0,0.1
	c0.1,0.3,0.2,0.6,0.3,1c0-0.1,0-0.2,0-0.2c0,0.1,0,0.2,0,0.2c0.1,0.6-0.1,1.1-0.1,1.7l0,0c0,0.1-0.1,0.1-0.1,0.2c0,0,0,0,0,0
	c-0.1,0.3-0.2,0.6-0.3,0.9c0.1,0,0.1-0.1,0.2-0.1c0,0-0.1,0.1-0.2,0.1l0,0C43.1,43.7,42.4,44.7,41.6,45.7z M43.8,42.3
	C43.8,42.3,43.8,42.3,43.8,42.3C43.8,42.3,43.8,42.3,43.8,42.3z M43.8,42.4C43.8,42.4,43.8,42.4,43.8,42.4
	C43.8,42.4,43.8,42.4,43.8,42.4z M45.3,53.6c-0.5,1.2-1.2,2.2-1.9,3.2c0.1-0.4,0.1-0.9,0.2-1.3c0.2-1.4,0.5-2.8,0.9-4.1
	c0.1-0.5,0.3-0.9,0.6-1.3c0.1-0.1,0.2-0.3,0.3-0.1c0.3,0.7,1,1.2,1.2,2c0.4,1.1,0.5,2.2,0.7,3.3c0.1,0.7,0.2,1.3,0.2,2
	C46.7,56.1,46,54.9,45.3,53.6z M48.3,53.5c-0.1,0-0.1,0-0.1,0C48.2,53.5,48.3,53.5,48.3,53.5C48.3,53.5,48.3,53.5,48.3,53.5
	C48.3,53.5,48.3,53.5,48.3,53.5z M57.4,32.1C57.4,32.1,57.4,32.1,57.4,32.1C57.4,32.1,57.4,32.1,57.4,32.1z M60.5,44.3
	c-0.9,1-1.8,1.9-2.7,2.9c-0.1,0.1-0.1,0.2-0.2,0.1c-0.5-0.3-1-0.6-1.4-1c-0.1-0.5-0.3-0.9-0.4-1.4c0-0.1-0.1-0.2-0.2-0.3
	c-0.6-0.2-1.1-0.4-1.7-0.5c0.4,0.2,0.8,0.5,1.2,0.7c0.2,0.1,0.3,0.2,0.3,0.4c0.1,0.4,0.2,0.7,0.2,1.1c0,0.1,0.1,0.2,0.2,0.3
	c0.4,0.3,0.7,0.7,1.1,0.9c0.2,0.2,0.2,0.2,0,0.4c-0.7,0.7-1.4,1.4-2,2.2c-0.1,0.1-0.2,0.3-0.3,0.4c-0.4-0.4-0.6-0.8-0.9-1.2
	c-0.5-0.8-1-1.7-1.5-2.6c-0.6-1-1.2-2.1-1.8-3.1c-0.4-0.6-0.8-1.1-1.2-1.7c0.2-0.2,0.5-0.4,0.7-0.5l0,0c0.8-0.7,1.6-1.4,2.3-2.1
	c0.7-0.6,1.3-1.2,2-1.8c0.5-0.4,0.9-0.9,1.5-1.1c0.1,0,0.2,0,0.3,0c-0.1,0-0.2,0-0.3,0c1.6,2,3,4.2,4.1,6.4c0.2,0.4,0.4,0.7,0.6,1
	C60.6,44.1,60.6,44.2,60.5,44.3z M62.4,37.4L62.4,37.4C62.4,37.4,62.4,37.4,62.4,37.4C62.4,37.4,62.4,37.4,62.4,37.4z M62.4,37.3
	C62.4,37.3,62.4,37.3,62.4,37.3C62.4,37.3,62.4,37.3,62.4,37.3C62.4,37.3,62.4,37.3,62.4,37.3C62.4,37.3,62.4,37.3,62.4,37.3z"/>
<path d="M57,58.7c-0.2-0.2-0.4-0.3-0.6-0.4c-0.2-0.1-0.3,0-0.3,0.2c0,0.4,0,0.8,0,1.2c0.1,0,0-0.1,0.1-0.1c0,0.7,0,1.4,0,2.1
	c0.4,0,0.7-0.4,1-0.5c0.1-0.7-0.2-1.3-0.2-2C57.1,59,57.2,58.8,57,58.7z"/>
</svg>
