<?xml version="1.0" encoding="utf-8"?>
<!-- Generator: Adobe Illustrator 19.1.1, SVG Export Plug-In . SVG Version: 6.00 Build 0)  -->
<svg version="1.1" id="Calque_1" xmlns="http://www.w3.org/2000/svg" xmlns:xlink="http://www.w3.org/1999/xlink" x="0px" y="0px"
	 viewBox="0 0 461.6 121.6" style="enable-background:new 0 0 461.6 121.6;" xml:space="preserve">
<style type="text/css">
	.st0{fill:none;}
	.st1{fill:none;stroke:#000000;stroke-miterlimit:10;}
</style>
<path class="st0" d="M195.6,25.1c-2.8-5-7.1-7.4-12.9-7.4c-5.8,0-10.1,2.4-12.9,7.4c-2.6,4.6-3.9,11-4.1,18h34
	C199.6,36,198.2,29.7,195.6,25.1z"/>
<path class="st0" d="M169.8,64.4c2.8,5,7.1,7.4,12.9,7.4c5.8,0,10.1-2.5,12.9-7.4c2.8-5,4.1-11.6,4.1-19.7c0-0.5,0-0.7,0-1.7h-34
	c0,1,0,1.1,0,1.7C165.7,52.8,167.1,59.5,169.8,64.4z"/>
<path d="M207.3,2.8c-12.1,0-21.2,3.7-27.2,11.3c-5.8,7.3-8.7,16.9-9,28.9h19.2c0.2-7,1.5-13.3,4.1-17.9c2.8-5,7.1-7.4,12.9-7.4
	c5.8,0,10.1,2.4,12.9,7.4c2.6,4.6,3.9,11,4.1,18h19.2c-0.2-12-3.2-21.6-9-28.9C228.5,6.5,219.4,2.8,207.3,2.8z"/>
<polygon points="289.8,5 253.8,5 253.8,20 270.8,20 270.8,43 289.8,43 "/>
<g>
	<path d="M41.8,54.1h10.6v44.2H41.8V81h-19v17.4H12.2V54.1h10.6v18.5h19V54.1z"/>
	<path d="M94.4,98.4h-9.6v-4.1c-2.6,3.1-5.9,4.6-9.8,4.6c-3.9,0-7.2-1-9.8-3.1c-2.6-2.1-4-4.9-4-8.4s1.4-6.1,4.1-7.8
		C68,77.8,71.7,77,76.5,77h7.6v-0.2c0-3.6-2.1-5.4-6.2-5.4c-1.8,0-3.7,0.3-5.6,1c-2,0.7-3.7,1.5-5,2.4l-4.6-6.1
		c4.8-3.2,10.3-4.9,16.5-4.9c4.5,0,8.1,1,10.9,3.1c2.8,2.1,4.2,5.3,4.2,9.8V98.4z M84,85.4v-1.6h-6.4c-4.1,0-6.1,1.2-6.1,3.5
		c0,1.2,0.5,2.2,1.5,2.8c1,0.7,2.4,1,4.2,1c1.8,0,3.4-0.5,4.8-1.5C83.4,88.5,84,87.1,84,85.4z"/>
	<path d="M123,72.7c-3.1,0-5.3,1-6.8,3c-1.5,2-2.3,4.7-2.3,7.9v14.7h-10.2v-34h10.2v4.5c1.3-1.4,3-2.6,4.9-3.5c2-1,4-1.5,6-1.5
		l0.1,8.9H123z"/>
	<path d="M142,98.4h-10.2V51.4H142V98.4z"/>
	<path d="M183.5,93.4c-4.1,3.6-9,5.4-14.6,5.4c-5.6,0-10.2-1.6-13.8-4.8c-3.6-3.2-5.5-7.5-5.5-12.8c0-5.4,1.9-9.6,5.6-12.8
		c3.7-3.2,8.1-4.7,13.1-4.7s9.3,1.4,12.9,4.2c3.5,2.8,5.3,6.7,5.3,11.6v5.1h-26.8c0.3,1.9,1.4,3.4,3.1,4.6c1.8,1.2,3.8,1.8,6,1.8
		c3.6,0,6.6-1.1,8.9-3.4L183.5,93.4z M173.7,73.2c-1.4-1.1-3.1-1.6-5.2-1.6c-2,0-3.9,0.6-5.6,1.7c-1.7,1.1-2.7,2.7-2.9,4.6h16.1
		C175.9,75.9,175.1,74.3,173.7,73.2z"/>
	<path d="M199.7,111.8c-3.6,0-7-1.3-10.2-4l4.6-7c1.7,1.6,3.5,2.3,5.3,2.3c1,0,1.8-0.4,2.5-1.3c0.7-0.9,1-1.8,1-2.8
		s-4.7-12.5-14.2-34.7h10.9l8.9,21.2l8.9-21.2h10.9l-17.1,40.1c-1,2.3-2.6,4.1-4.7,5.4C204.6,111.1,202.3,111.8,199.7,111.8z"/>
	<path d="M300.1,76c0,4.6-1.3,8.7-3.8,12.4s-5.9,6.4-10.2,8.2c0.4,0.6,1.1,1.2,1.9,1.6c0.9,0.4,1.8,0.7,2.8,0.7s1.9-0.1,2.8-0.4
		c0.9-0.3,1.6-0.6,2.2-1c1.2-0.9,2-1.7,2.5-2.6l5.5,6.1c-3.9,3.8-8.8,5.8-14.7,5.8c-2.7,0-5.4-0.7-8.1-2.1c-2.6-1.4-4.7-3.4-6.1-5.9
		c-7.1,0-13-2.2-17.8-6.5c-4.8-4.4-7.2-9.8-7.2-16.3c0-6.5,2.4-11.9,7.2-16.3c4.8-4.4,10.8-6.5,17.8-6.5c7.1,0,13,2.2,17.8,6.5
		C297.6,64,300.1,69.5,300.1,76z M289.2,76c0-3.9-1.4-7.3-4.1-10.1c-2.7-2.8-6.1-4.2-10.1-4.2c-4,0-7.3,1.4-10.1,4.2
		s-4.1,6.1-4.1,10.1c0,3.9,1.4,7.3,4.1,10.1c2.7,2.8,6.1,4.1,10.1,4.1c4,0,7.3-1.4,10.1-4.1C287.8,83.3,289.2,79.9,289.2,76z"/>
	<path d="M331.8,82.7V64.3h10.3v34h-10.3v-4.5c-2.5,3.3-5.8,5-9.9,5s-7.4-1.2-10.1-3.5c-2.7-2.3-4.1-5.8-4.1-10.4V64.3H318v18.5
		c0,5.2,2.1,7.8,6.2,7.8c2,0,3.8-0.7,5.3-2.1C331,87.3,331.8,85.3,331.8,82.7z"/>
	<path d="M352.7,60c-1.2-1.1-1.7-2.4-1.7-4c0-1.6,0.6-2.9,1.7-4c1.2-1.1,2.6-1.6,4.3-1.6c1.7,0,3.1,0.5,4.3,1.6
		c1.2,1.1,1.7,2.4,1.7,4c0,1.6-0.6,2.9-1.7,4c-1.2,1.1-2.6,1.6-4.3,1.6C355.2,61.6,353.8,61.1,352.7,60z M362,98.4h-10.2v-34H362
		V98.4z"/>
	<path d="M382,79.4v19h-10.2v-34H382v3.8c3.1-2.9,6.6-4.4,10.4-4.4c3.9,0,7.1,1.3,9.7,3.8c2.6,2.5,3.9,5.9,3.9,10.1v20.7h-10.2V79.1
		c0-5.2-2.1-7.8-6.2-7.8c-2,0-3.8,0.7-5.4,2.1C382.7,74.7,382,76.7,382,79.4z"/>
	<path d="M425.6,79.4v19h-10.2v-34h10.2v3.8c3.1-2.9,6.6-4.4,10.4-4.4c3.9,0,7.1,1.3,9.7,3.8c2.6,2.5,3.9,5.9,3.9,10.1v20.7h-10.2
		V79.1c0-5.2-2.1-7.8-6.2-7.8c-2,0-3.8,0.7-5.4,2.1C426.4,74.7,425.6,76.7,425.6,79.4z"/>
</g>
<line class="st1" x1="5.8" y1="42.5" x2="456.8" y2="42.5"/>
</svg>
