<?xml version="1.0" encoding="utf-8"?>
<!-- Generator: Adobe Illustrator 19.1.1, SVG Export Plug-In . SVG Version: 6.00 Build 0)  -->
<svg version="1.1" id="Calque_1" xmlns="http://www.w3.org/2000/svg" xmlns:xlink="http://www.w3.org/1999/xlink" x="0px" y="0px"
	 viewBox="0 0 168 295.2" style="enable-background:new 0 0 168 295.2;" xml:space="preserve">
<style type="text/css">
	.st0{fill:none;}
	.st1{fill:none;stroke:#000000;stroke-miterlimit:10;}
</style>
<g>
	<path d="M116.8,88.4h48.1v114.5h-25.5v-92.7h-22.6V88.4z"/>
</g>
<path class="st0" d="M56.6,183.2c7.9,0,13.9-3.5,17.6-10.5c3.7-7,5.7-16.2,5.7-27.7c0-11.5-1.8-20.7-5.6-27.7
	c-3.7-7-9.8-10.5-17.7-10.5c-0.7,0-1.2,0.1-2.2,0.1v76.1C55.4,183.1,55.9,183.2,56.6,183.2z"/>
<path class="st0" d="M39.1,117.4c-3.7,7-5.5,16.2-5.5,27.7c0,11.5,1.7,20.7,5.4,27.7c3.4,6.4,9.4,9.8,15.4,10.4V107
	C48.4,107.6,42.5,111,39.1,117.4z"/>
<path d="M93.7,101.9C85.6,91.1,73,85.8,56.6,85.8c-0.7,0-1.2,0.1-2.2,0.1V107c1-0.1,1.5-0.1,2.2-0.1c7.9,0,13.9,3.5,17.6,10.5
	c3.7,7,5.7,16.2,5.7,27.7c0,11.5-1.8,20.7-5.6,27.7c-3.7,7-9.8,10.5-17.7,10.5c-0.7,0-1.2-0.1-2.2-0.1v21c1,0,1.5,0.1,2.2,0.1
	c16.4,0,28.8-5.4,37-16.1c8.2-10.7,12.3-25.1,12.3-43.1C105.9,127,101.9,112.7,93.7,101.9z"/>
<line class="st1" x1="53.9" y1="293.4" x2="53.9" y2="1.4"/>
<g>
	<path d="M5.6,269.3v-6.9h32v6.9H25v12.3h12.6v6.9h-32v-6.9h13.4v-12.3H5.6z"/>
	<path d="M37.6,235.4v6.2h-3c2.2,1.7,3.3,3.8,3.3,6.3c0,2.5-0.8,4.6-2.3,6.3c-1.5,1.7-3.5,2.6-6,2.6s-4.4-0.9-5.7-2.6
		c-1.3-1.8-1.9-4.2-1.9-7.2V242H22c-2.6,0-3.9,1.3-3.9,4c0,1.1,0.2,2.4,0.7,3.6c0.5,1.3,1.1,2.4,1.8,3.2l-4.4,3
		c-2.3-3.1-3.5-6.7-3.5-10.7c0-2.9,0.7-5.2,2.2-7.1c1.5-1.8,3.9-2.7,7.1-2.7H37.6z M28.2,242.1H27v4.1c0,2.6,0.9,4,2.6,4
		c0.9,0,1.6-0.3,2-0.9c0.5-0.6,0.7-1.5,0.7-2.7c0-1.2-0.4-2.2-1.1-3.1C30.4,242.5,29.4,242.1,28.2,242.1z"/>
	<path d="M19,216.9c0,2,0.7,3.4,2.2,4.4s3.4,1.5,5.7,1.5h10.7v6.6H12.9v-6.6h3.3c-1-0.9-1.9-1.9-2.6-3.2c-0.7-1.3-1.1-2.6-1.1-3.9
		l6.5,0V216.9z"/>
	<path d="M37.6,204.7v6.6h-34v-6.6H37.6z"/>
	<path d="M34,177.9c2.6,2.7,3.9,5.8,3.9,9.4c0,3.6-1.2,6.6-3.5,8.9s-5.4,3.5-9.3,3.5s-7-1.2-9.2-3.6c-2.3-2.4-3.4-5.2-3.4-8.5
		c0-3.3,1-6,3.1-8.3c2-2.3,4.8-3.4,8.4-3.4h3.7v17.3c1.3-0.2,2.4-0.9,3.3-2c0.9-1.1,1.3-2.4,1.3-3.9c0-2.3-0.8-4.2-2.4-5.7L34,177.9
		z M19.4,184.2c-0.8,0.9-1.2,2-1.2,3.3s0.4,2.5,1.2,3.6c0.8,1.1,1.9,1.7,3.3,1.9v-10.4C21.3,182.8,20.2,183.3,19.4,184.2z"/>
	<path d="M47.3,167.4c0,2.3-1,4.5-2.9,6.6l-5.1-3c1.1-1.1,1.7-2.3,1.7-3.4c0-0.6-0.3-1.1-0.9-1.6c-0.6-0.4-1.3-0.7-2-0.7
		s-9.1,3.1-25.1,9.2v-7.1l15.3-5.8l-15.3-5.8v-7.1l29,11c1.7,0.6,3,1.7,3.9,3C46.8,164.2,47.3,165.7,47.3,167.4z"/>
	<path d="M21.4,102.6c3.3,0,6.3,0.8,9,2.4c2.7,1.6,4.6,3.8,5.9,6.6c0.5-0.3,0.8-0.7,1.2-1.3c0.3-0.6,0.5-1.2,0.5-1.8
		c0-0.6-0.1-1.2-0.3-1.8c-0.2-0.6-0.4-1.1-0.7-1.4c-0.6-0.8-1.3-1.3-1.9-1.6l4.4-3.6c2.8,2.5,4.2,5.7,4.2,9.5c0,1.8-0.5,3.5-1.5,5.2
		c-1,1.7-2.4,3-4.3,3.9c0,4.6-1.6,8.4-4.7,11.5c-3.2,3.1-7.1,4.7-11.8,4.7s-8.6-1.6-11.8-4.7c-3.2-3.1-4.7-6.9-4.7-11.5
		c0-4.6,1.6-8.4,4.7-11.5C12.7,104.2,16.7,102.6,21.4,102.6z M21.4,109.6c-2.9,0-5.3,0.9-7.3,2.6c-2,1.8-3,3.9-3,6.5s1,4.7,3,6.5
		c2,1.8,4.4,2.6,7.3,2.6c2.9,0,5.3-0.9,7.3-2.6c2-1.8,3-3.9,3-6.5s-1-4.7-3-6.5C26.7,110.5,24.2,109.6,21.4,109.6z"/>
	<path d="M26.2,82.1H12.9v-6.7h24.6v6.7h-3.2c2.4,1.6,3.6,3.8,3.6,6.4s-0.8,4.8-2.5,6.5c-1.7,1.8-4.2,2.6-7.5,2.6H12.9V91h13.4
		c3.8,0,5.7-1.3,5.7-4c0-1.3-0.5-2.5-1.5-3.4C29.5,82.6,28.1,82.1,26.2,82.1z"/>
	<path d="M9.8,68.7c-0.8,0.7-1.7,1.1-2.9,1.1c-1.1,0-2.1-0.4-2.9-1.1c-0.8-0.8-1.2-1.7-1.2-2.8c0-1.1,0.4-2,1.2-2.8
		C4.9,62.4,5.8,62,6.9,62c1.1,0,2.1,0.4,2.9,1.1c0.8,0.7,1.2,1.7,1.2,2.8C11,67,10.6,67.9,9.8,68.7z M37.6,62.6v6.6H12.9v-6.6H37.6z
		"/>
	<path d="M23.8,49.8h13.7v6.6H12.9v-6.6h2.7c-2.1-2-3.2-4.2-3.2-6.7s0.9-4.6,2.7-6.3s4.3-2.5,7.3-2.5h15v6.6H23.6
		c-3.8,0-5.7,1.3-5.7,4c0,1.3,0.5,2.5,1.5,3.5C20.5,49.3,21.9,49.8,23.8,49.8z"/>
	<path d="M23.8,21.6h13.7v6.6H12.9v-6.6h2.7c-2.1-2-3.2-4.2-3.2-6.7s0.9-4.6,2.7-6.3S19.5,6,22.6,6h15v6.6H23.6
		c-3.8,0-5.7,1.3-5.7,4c0,1.3,0.5,2.5,1.5,3.5C20.5,21.1,21.9,21.6,23.8,21.6z"/>
</g>
</svg>
