<?xml version="1.0" encoding="utf-8"?>
<!-- Generator: Adobe Illustrator 19.1.1, SVG Export Plug-In . SVG Version: 6.00 Build 0)  -->
<svg version="1.1" id="Calque_1" xmlns="http://www.w3.org/2000/svg" xmlns:xlink="http://www.w3.org/1999/xlink" x="0px" y="0px"
	 viewBox="0 0 421 209" style="enable-background:new 0 0 421 209;" xml:space="preserve">
<style type="text/css">
	.st0{fill:#FFFFFF;}
</style>
<g>
	<path class="st0" d="M135.1,187.5c-1.2-8.1-4.7-15.1-9.1-21.8c-1.8-2.7-3.3-5.7-4.5-8.7c-2.6-6.3-0.5-11.9,3.3-16.9
		c1.5-2,3.6-3.8,5.8-5c7.6-4.2,16.1,0,19,7.6c0.6,1.7,1,3.5,1.6,5.6c1.4-3,1.9-6.1,2.1-9.2c0.3-3.2-0.5-6.3-2-9.1
		c3.1-0.5,12.6,4.2,14.1,7c-7.1,1-9.4,7-12.4,12.5c0.7-0.4,1.5-0.8,2.2-1.3c7.3-4.8,17-2.4,20.4,5.3c2.2,4.8,1.7,9.7,0,14.6
		c-2.4,7.2-7.7,10.4-14.5,11.6c-3.9,0.7-7.9,1.1-11.8,1.8c-4.9,0.9-9.6,2.6-13.8,5.7C135.5,187.5,135.3,187.5,135.1,187.5z"/>
	<path class="st0" d="M314.1,102.3c0.2,1.7,0.4,3.4,0.5,5c0.1,1.6,0.3,3.2,0.3,4.8c0,0.4-0.9,1.1-1.4,1.2c-0.4,0.1-1.3-0.9-1.2-1
		c0.9-1.5-0.5-2.4-0.8-3.6c-2.4-13.2-5-26.5-7.5-39.7c-1-5.4-2-10.9-3.1-16.2c-0.4-1.7,0.1-2.4,1.6-2.8c2.2-0.6,4.4-1.3,6.6-2
		c1-0.3,1.6-0.2,2.2,1c3.7,7.4,7.5,14.6,11.3,22c5.4,10.6,10.8,21.3,16.1,31.9c0.2,0.5,0.5,0.9,1.3,1.1C334,84,328,64,322,43.9
		c7.3-2.2,14.2-4.5,21.2-6.4c6.6-1.8,12.5,1.8,14.9,9c2.4,7.1,4.4,14.2,6.5,21.4c1.6,5.4,3.2,10.7,4.4,16.2
		c1.3,5.7-1.1,10.5-6.1,13.3c-1.2,0.7-2.6,1.7-3.2-0.8c-0.1-0.3-0.9-0.3-1.3-0.5c-0.7-0.4-1.4-0.9-2.2-1.2c-0.6-0.2-1.6-0.2-1.8,0.1
		c-0.4,0.7-0.6,1.7-0.4,2.5c0.1,0.5,1,0.8,1.7,1.3c-4,4.1-9.5,4.2-14.2,6c-3.2,1.3-6.7,2-9.9,3.3c-2.2,0.9-3.3,0.3-4.1-1.9
		c-0.6-1.8-1.6-3.4-2.2-5.1c-0.6-1.6-1.5-1.8-3-1.3C319.7,100.5,317,101.3,314.1,102.3z M335.4,49.3c4.4,14.7,8.6,29.1,12.9,43.7
		c1.1-0.4,2-0.7,2.9-1c1-0.3,2-0.6,2.9-0.9c3.6-1.2,4.7-3,3.6-6.8c-1.8-6.9-3.9-13.7-5.9-20.5c-1.2-4.2-2.5-8.4-3.8-12.6
		c-0.9-2.8-2.6-4.4-4.7-4C340.8,47.7,338.3,48.6,335.4,49.3z M309.6,66.1c-0.2,0.1-0.4,0.1-0.6,0.2c1.2,8.7,2.4,17.3,3.6,26.3
		c2.9-0.8,5.5-1.5,8-2.3C316.9,82.1,313.3,74.1,309.6,66.1z"/>
	<path class="st0" d="M285.8,54.6c0.9,2.9,1.7,5.6,2.5,8.3c2.9,9.8,5.8,19.5,8.6,29.3c1.2,3.9,2.4,7.9,3.4,11.9
		c1.6,6.2-0.2,11.1-5.3,14.9c-4,2.9-8.6,4.2-13.4,4.5c-6.2,0.4-11.2-2.8-13.2-9.1c-5.2-16.4-10-32.9-15-49.8
		c3.5-0.9,6.8-1.8,10.1-2.5c0.4-0.1,1.2,0.9,1.4,1.5c2.5,8.3,5,16.6,7.4,24.9c2,6.7,3.9,13.4,6,20c1.3,4,3.4,5.2,7,4.1
		c3.2-1,4.5-3.1,3.6-6.5c-1-3.8-2.2-7.6-3.3-11.4c-2.4-8.2-4.8-16.3-7.2-24.5c-0.9-3.1-1.8-6.2-2.9-9.3c-0.6-1.7-0.3-2.8,1.4-3.4
		C279.8,56.6,282.6,55.7,285.8,54.6z"/>
	<path class="st0" d="M235.6,171.2c0.5-0.9,0.7-1.3,0.9-1.8c2.7-6.8,9.6-8.1,14.2-2.6c2.5,3,4.2,6.6,4.4,10.7
		c0.3,5.1-3.1,8.5-8.5,8.6c-2,0-4.1-0.2-6.3,0.1c0.7,0.4,1.3,0.8,2,1.2c4.7,2.7,5.4,8.3,1.4,12c-3.4,3.1-7.4,4.6-12,4.3
		c-6.1-0.4-9.5-5.1-8.1-11.4c0.5-2.2,1.7-4.2,2.6-6.3c0.3-0.7,0.8-1.4,1-2.4c-5.4,1.9-9.5,5.1-11.5,11.5c-2.3-3.9-4.2-7.5-4.6-12
		c5.8,3.3,10.8,0.6,15.8-1.3c0-0.3,0-0.6,0-0.8c-0.6-0.1-1.2-0.3-1.7-0.4c-2.2-0.7-4.6-1.1-6.5-2.3c-4.5-2.6-5.7-7.4-3.2-12.1
		c2.6-5,8.8-8.2,14-7.2c4.1,0.8,6.1,3.2,6.2,7.5C235.6,167.7,235.6,169.2,235.6,171.2z"/>
	<path class="st0" d="M150.4,28.3c2.5-1.6,5.1-2.4,7.7-1.7c3.3,0.8,6.7,1.8,8.9,4.8c0.5,0.7,0.7,1.6,0.9,2.4c0.1,0.4,0.1,1,0.3,1.3
		c3.5,5.8,7,11.6,10.5,17.3c0.4,0.7,1.3,1,2,1.5c0.3,0.8,0.6,1.9,1,2.8c1.3,2.5,3.5,4.8,3.8,7.4c0.3,2.8-0.7,6.2-2.2,8.6
		c-2.1,3.3-5.1,5.9-9.3,6.6c-1,0.1-1.7,1.3-2.6,1.9c-2.3,1.5-4.7,3-7,4.6c-1.3,0.9-1.9,0.6-2.6-0.6c-4.9-8.1-9.8-16.3-14.8-24.4
		c-4-6.5-8-13-12-19.6c-0.5-0.8-1-1.6-1.6-2.8c5.2-3.4,10.3-6.7,15.7-10.3c1.2,2.6,2.4,4.9,3.6,7.5c-1.4,0.8-2.6,1.5-3.7,2.3
		c-2.7,1.8-2.8,2.6-1,5.3c5.7,9,11.4,18.1,17.1,27.2c0.7,1.2,1.5,2.3,2.3,3.5c1-0.5,1.8-0.9,2.8-1.3c1,1.8,2,3.7,3.1,5.6
		c0.2-0.1,0.4-0.2,0.6-0.3c-0.7-1.8-1.5-3.7-2.3-5.6c0.5-0.4,0.9-0.7,1.4-1c2.6-2,3-3.9,1.3-6.7c-5.3-8.8-10.7-17.6-16.1-26.4
		c-0.3-0.5-0.8-1.1-1.4-1.3c-1.6-0.7-3.4-1-4-3.2C152.2,31.8,151.2,30.2,150.4,28.3z"/>
	<path class="st0" d="M78.9,84.1c0.6,0,1.1-0.1,1.7-0.1c0-0.2,0-0.4,0-0.6c-0.7-0.1-1.4-0.3-2.4-0.5c2.5-1.7,4.8-3.3,7.5-5.2
		c1.6,2.3,3.2,4.4,4.6,6.7c3.4,5.4,6.7,10.9,10.1,16.3c2.8,4.5,5.6,9,8.4,13.5c0.3,0.4,0.9,0.6,1.4,0.8c0.2,0.1,0.5,0.3,0.5,0.4
		c-0.1,4.3,2.5,8.7-0.4,13c-3.9,5.7-9.1,9.4-15.9,9.7c-2.2,0.1-4.9-0.9-6.8-2.3c-3.3-2.5-6.2-5.6-9.7-8.9c1.1-0.4,1.5-0.6,2.2-0.9
		c-6.4-10.7-12.7-21.3-19.3-32.2c2.8-1.8,5.5-3.6,8.3-5.4c5.5,9,10.9,17.8,16.3,26.6c2.2,3.6,4.4,7.1,6.7,10.6c2,3,4.1,3.5,6.6,1.7
		c2.7-1.8,3.1-3.7,1.3-6.9c-2.4-4.3-5-8.5-7.5-12.7c-2.8-4.6-5.8-9.1-8.2-13.9c-0.9-1.7-3.3-3-2.4-5.6c0.1-0.2-0.3-0.5-0.5-0.7
		c-1.1-1-2.1-1.9-3.2-2.8C78.5,84.6,78.7,84.4,78.9,84.1z"/>
	<path class="st0" d="M195.4,43.7c3.2,5.3,6.3,10.4,9.6,15.7c5.2-3.3,10.2-6.6,15.5-10c1.6,2.6,3.1,5.1,4.8,7.8
		c-8.2,5.3-16.3,10.6-24.3,15.8c-5.5-8.1-11-16.1-16.4-24c0.1-0.1,0.1-0.2,0.2-0.3c0.4,0.7,0.7,1.5,1.1,2.2c0.3-0.2,0.5-0.4,0.8-0.7
		c-5.7-9.3-11.3-18.5-17.2-28c8-5.2,15.9-10.3,24-15.5c1.4,2.4,2.8,4.5,4,6.7c0.2,0.4-0.3,1.6-0.8,2c-3.6,2.5-7.3,4.8-11,7.1
		c-0.7,0.5-1.4,1-2.3,1.5c2.4,4,4.8,7.8,7.3,11.9c4.6-3,9.2-5.9,14-9c1.6,2.6,3,5,4.7,7.7C204.6,37.7,200.1,40.7,195.4,43.7z"/>
	<path class="st0" d="M245.2,113.7c0,1,0,1.9,0,2.9c0,0.6-0.1,1.2-0.1,1.7c0,0,0.1-0.1,0.1-0.1c-0.5-0.8-0.9-1.7-1.4-2.4
		c-0.4-0.7-0.9-1.6-1.5-1.9c-1.7-0.8-2.4,0.4-2.9,1.9l0.1,0.1c-0.9-1.2-1.5-3.1-3.7-2.3c-0.2,0.7-0.3,1.5-0.5,2.2
		c-1.1-0.7-2.1-1.5-3.2-2.1c-1.3-0.6-2.5-2.5-4.1-0.4c-2.5-5-6.1-18.5-5.2-19.7c-4.2-4.1-4.6-13.1-0.5-17.3c5.6-6,12.8-8,20.6-7.1
		c5.7,0.6,8.7,4.8,10.3,10.1c1.5,5.1,3.2,10.2,4.4,15.4c0.6,2.8,1.7,5.7,0.3,8.7c-0.9,1.8-1.4,3.5-3.8,4c-1.3,0.2-2.9,1.6-3.4,2.8
		c-0.9,2.3-2.5,2.8-4.4,3.1c-0.4,0.1-0.7,0.3-1.1,0.5c0.4-1.4,0.7-2.8,1.3-4.1c1.6-3.2,1-4.8-3.1-6.2
		C244,107.1,244.6,110.4,245.2,113.7z M238.2,85.2c-4.4,0.9-4,5.6-6.5,8.1c-2.5-2.3-5-4.5-7.4-6.7c-1.5,1.8-1,4.2,0.8,5.7
		c1.8,1.4,3.4,3,5,4.5c-3.5,6.3-3.7,7.9-1.2,10.5c1.2-2.8,2.3-5.5,3.5-8.2c2.5,1.6,4.6,3,6.8,4.3c0.2-0.1,0.5-0.2,0.7-0.3
		c-0.2-1-0.2-2.1-0.7-2.9c-0.8-1.2-1.8-2.3-2.9-3.2c-1.1-1-1.4-2-0.9-3.4C236.3,91,237.2,88.2,238.2,85.2z M251.4,83.5
		c-0.2,0-0.5-0.1-0.7-0.1c-0.2,0.4-0.6,0.7-0.7,1.2c-0.9,2.2-1.7,2.4-3.6,0.8c-0.8-0.7-1.8-1.2-2.8-1.7c-0.3-0.1-1.1,0.1-1.2,0.3
		c-0.3,1.5-0.7,3-0.6,4.5c0,0.5,1.5,1,2.3,1.4c0.8,0.4,1.6,0.8,2.2,1c-1.1,3.9-2.1,7.5-3.1,11.2c0.3,0.1,0.6,0.2,0.8,0.4
		c1.8-3.4,3.5-6.8,5.3-10.3c2.2,1.1,4.3,2.1,6.5,3.1c0.2-0.3,0.4-0.6,0.6-0.9c-1.1-0.9-2.2-1.9-3.3-2.7c-1.7-1.2-3-2.4-2.1-4.9
		C251.3,85.7,251.3,84.5,251.4,83.5z M242.2,104.1c-1.2,1-2.4,2-1.6,3.8c0.6,1.3,1.3,2.6,2.1,3.9
		C244.3,111.4,244.3,107.8,242.2,104.1z"/>
	<path class="st0" d="M135.2,73.6c-2.6,1.7-5,3.2-7.6,4.9c-1.4-2.2-2.6-4.2-3.9-6.3c-1.9-3-3.9-3.6-6.5-2c-2.6,1.7-3.2,3.9-1.4,6.9
		c4.9,8.1,9.9,16.2,15,24.2c2.3,3.6,4.3,3.9,7.2,1.6c1.9-1.4,2.2-3.1,1.2-5.1c-1.4-2.6-3-5.2-4.6-8c2.5-1.6,5-3.2,7.7-5
		c1.9,3.3,4,6.3,5.5,9.6c2.2,4.7,0.9,9.2-3.1,12.6c-4.1,3.4-8.3,6.3-14.3,5.8c0.7,0.9,1.1,1.5,1.6,2c-0.1,0.2-0.3,0.3-0.4,0.5
		c-2.6-2.4-5.6-4.5-7.5-7.4c-2.7-4-5.6-7.9-8-12.2c-1.3-2.3-2.2-4.8-3.8-7c-1.6-2.3-3-4.8-4.4-7.2c-3-5.4-2.7-10,1.8-14.1
		c2.9-2.6,6.5-4.6,10.1-6.1c4.1-1.7,7.7,0.1,10.6,4.2C131.9,68.2,133.4,70.8,135.2,73.6z"/>
	<path class="st0" d="M33.8,165.2c-1.4-3.1-2.6-5.9-3.9-8.8c-1.1,0.7-2.1,1.2-3,1.8c-1.1,0.6-1.4,1.4-0.7,2.6
		c0.9,1.7,1.5,3.6,2.4,5.3c1,1.8,0.5,2.8-1.1,3.6c-1,0.5-1.9,1.1-3.1,1.8c-1.4-2.9-2.7-5.7-4-8.5c-0.2,0-0.3-0.1-0.4,0
		c-1.2,0.6-2.4,1.2-3.5,1.8c-0.1,0.1-0.5-0.1-0.6-0.3c-0.9-1.4-1.7-2.9-2.6-4.3c1.5-1.3,3.3-2.3,4.1-3.9c0.4-0.8-0.9-2.6-1.5-4.2
		c-1.6,1-3,1.8-4.5,2.8c-1-1.8-2-3.3-3.1-5.2c1.2-0.8,2.4-1.7,3.6-2.4c1.1-0.7,1.3-1.4,0.7-2.6c-0.8-1.6-1.4-3.3-2.2-4.9
		c-0.7-1.5-0.5-2.6,1-3.4c1-0.5,2.1-1.1,3.3-1.7c1.3,2.8,2.4,5.3,3.5,7.9c0.2,0,0.4,0.1,0.5,0c4.4-2.4,4.4-2.4,2.2-7.1
		c-0.6-1.2-1.2-2.4-2-4c1.7-1.1,3.4-2.1,5.2-3.3c1.3,2.9,2.6,5.5,3.9,8.4c1.4-0.8,2.5-1.4,3.9-2.2c1,1.6,2,3.2,3.1,4.9
		c-1.5,1.1-3,2.1-4.6,3.3c0.7,1.5,1.4,2.9,2.2,4.4c1.4-0.8,2.7-1.5,4.2-2.4c1.1,1.7,2.1,3.2,3.3,5c-1.7,1.2-3.2,2.2-4.9,3.4
		c1.3,3,2.6,5.9,3.9,9C37.5,162.9,35.8,164,33.8,165.2z M27.3,150.4c-0.7-1.7-1.4-3.1-2-4.6c-4.9,2.9-5.2,4.2-2,7.4
		C24.6,152.3,25.8,151.4,27.3,150.4z"/>
	<path class="st0" d="M245,118.3c0.5-0.2,1-0.3,2-0.6c-0.6,1.6-1.1,2.8-1.4,3.8c-1.7-0.1-3.1-0.2-4.7-0.3c-0.8-1.1-0.8-1.1-4.9-0.7
		c2.2,3.9,5.9,4.2,9.4,5.4c0-0.5,0-0.9,0-1.2c-0.1-0.4-0.2-0.7-0.4-1.4c0.7,0.3,1.2,0.5,1.7,0.7c0.4-1.3,0.7-2.5,1-3.7
		c0.1,0,0.3,0,0.4,0c0.1,0.7,0.2,1.4,0.4,2.3c1.8-0.9,3.1-1.9,1.7-4.4c0.9,0.2,1.4,0.4,2,0.5c0.6-2.9,3.6-5.2,1.8-8.7
		c0.9,0.7,1.7,1.3,2.6,1.9c0.4,0.3,1,0.3,1.4,0.5c0-0.6,0.2-1.1,0.1-1.7c-0.1-0.5-0.4-0.9-0.2-1.7c0.4,0.4,0.8,1,1.3,1.2
		c0.4,0.2,1-0.1,1.4-0.3c0.1-0.1-0.1-0.8-0.2-1.1c-0.3-0.9-0.5-1.8-0.8-2.7c0.3-0.1,0.5-0.2,0.8-0.3c0.4,0.8,1,1.5,1.2,2.3
		c1.2,4.5,3.4,8.8,2.8,13.7c0,0.4,0.5,1,0.9,1.2c0.8,0.5,1.7,1,2.6,1.1c7.8,1.4,7.1,8.4,9.3,14.4c-4.2-1.7-7.7-3.1-11.3-4.5
		c-1-0.4-2.2-0.7-3-1.3c-3.7-2.6-7-1.4-10.4,0.6c-5.3,3.1-13.9,2.3-18.2-1.9c-1.3-1.3-2.2-3.2-2.8-5c-1.1-2.9-1.8-6-2.4-9.6
		c0.9,0.5,1.8,0.9,2.6,1.4c1,0.7,1.6,1.8,3.2,0.7c1-0.6,2.5-0.3,3.5-0.4c0.4-1.1,0.7-1.9,1-2.8c0,0-0.1-0.1-0.1-0.1
		c0.2,0.3,0.4,0.5,0.5,0.8c0.5,3.9,1.5,4.7,5.5,3.9C245.2,119.8,245.2,119,245,118.3L245,118.3z"/>
	<path class="st0" d="M215.1,127.4c-0.9-2.3-1.8-4.6-3.1-8c-1.2-0.5-3.6-1.3-5.9-2.2c-0.6-0.2-1.4-0.5-1.5-0.9
		c-1.5-4-2.9-8.1-4.5-12.7c4.4,1.5,8.3,2.7,12.1,4.1c2.8,1,5.5,2.2,8.2,3.5c0.9,0.4,1.8,1.1,2.4,2c4,6.1,6,12.8,5.7,20.1
		c-0.2,4-2.8,6.9-6.1,8.7c-2.4,1.3-5,2.3-7.8,3.5c-1.1-2.9-2.1-5.5-3.1-8.3c0.8-0.3,1.4-0.6,2.1-0.9c2.8-1.1,3-1.7,2.1-4.5
		C215.1,130.4,215.1,128.8,215.1,127.4c0.3,0.1,0.7,0.2,1.8,0.6c-1-2.5-1.8-4.5-2.5-6.5c-0.1,0.1-0.2,0.1-0.3,0.2
		C214.3,123.6,214.7,125.5,215.1,127.4z"/>
	<path class="st0" d="M68.9,154.1c-1.9-2.8-3.3-5.1-4.8-7.3c0.2-0.3,0.2-0.5,0.3-0.6c5.7-2.9,6-4.5,3.1-10.2
		c-2.2-4.4-5.3-6.8-10.1-6.3c-3.8,0.4-6-1.3-7.7-4.6c-1-2-2.4-3.9-4-6.3c3.2,0.2,5.8,0.3,8.4,0.5c4.8,0.3,9.9-0.6,14.4,1.9
		c1.5,0.8,3.1,1.8,4.1,3.1c2.2,3.1,4.2,6.3,5.9,9.6c2.4,4.7,1.9,9.4-1.7,13.3C74.5,149.7,71.7,151.7,68.9,154.1z"/>
	<path class="st0" d="M116,120c-4.8-7.1-8.1-14.8-12.6-21.7c-4.7-7.2-8.9-14.7-13.5-22.2c0.9-0.7,1.7-1.3,2.6-1.8
		c5.4-3.4,4.2-3.9,8,2c4.9,7.7,9.6,15.4,14.4,23.1c2.9,4.6,5.8,9.3,8.5,14c0.3,0.5,0.1,1.9-0.3,2.2C120.9,117.2,118.6,118.5,116,120
		z"/>
	<path class="st0" d="M127.7,56.3c1.8-1.2,3.2-2.3,4.8-3.1c1.7-1,3.8-0.1,5.1,2c5.5,9.1,11.1,18.1,16.6,27.2
		c2.6,4.2,5.2,8.3,7.9,12.7c-2.6,1.7-5.1,3.2-7.7,5C145.5,85.4,136.7,70.9,127.7,56.3z"/>
	<path class="st0" d="M186.8,81.9c0.1,0.6,0.1,1.1,0.2,1.5c0.2,0.1,0.4,0.2,0.6,0.3c0.7-1,1.3-2.1,2-3.2c0.6,0.1,1.6,0.4,2.1,0.5
		c0.6,2.4,1.3,4.9,1.9,7.4c0.2,1,0.1,2,0.3,3c0.6,2.8,0.6,6.1,2.2,8.2c1.9,2.5,3,5,4,7.8c0.8,2.3,1.5,4.6,2.4,7.4
		c-4.5-1.2-8.6-2.4-13-3.5c0.5-0.2,0.8-0.3,1.4-0.5c-5-3-6.1-8.1-8-12.9c-1.6-4-1-7.4,1.2-10.8C185.1,85.6,185.8,83.8,186.8,81.9z"
		/>
	<path class="st0" d="M304.1,115.4c-0.7-6.4-1.3-12.5-1.9-18.7c-1.2-11.5-2.5-23.1-3.7-34.6c-0.3-3.1-0.7-6.3-0.9-9.4
		c0-0.8,0.8-1.7,1.2-2.5c0.3,0.1,0.6,0.2,0.9,0.3c0.8,4.3,1.7,8.7,2.5,13c2.4,12.6,4.7,25.2,7.1,37.8c0.7,3.5,1.2,7,1.9,10.5
		c0.3,1.3-0.1,1.9-1.4,2.2C307.8,114.4,306.1,114.9,304.1,115.4z"/>
	<path class="st0" d="M342.6,138.2c-0.5-1.1-0.9-1.9-1.3-2.6c-0.8-1.4-1.8-2.3-3.5-1.3c-1.5,0.8-2,2.1-1.3,3.7
		c1.5,3.3,3.1,6.6,4.7,9.9c0.8,1.7,1.7,3.5,2.6,5.2c0.7,1.4,1.9,1.9,3.4,1.2c1.5-0.7,1.8-1.9,1.2-3.4c-0.7-1.5-1.4-3.1-2.1-4.8
		c-1,0.4-1.9,0.7-3,1.1c-0.5-1.1-1.1-2.2-1.7-3.6c2.5-1.3,4.8-2.5,7.3-3.7c2.3,4.8,4.4,9.3,6.7,14.1c-1.7,0.6-3.1,1.2-5.1,2
		c-0.7,0.6-1.8,2-3.3,2.8c-3.2,1.7-6.1,0.7-7.7-2.7c-2.4-5-4.9-10-7.2-15.1c-1.9-4.1-1.1-6.7,2.6-9.1c1.2-0.8,2.5-1.4,3.9-1.8
		c3.8-1.2,7.5,1.4,7.9,5.5c0,0.4-0.4,1-0.7,1.3C344.9,137.2,343.8,137.6,342.6,138.2z"/>
	<path class="st0" d="M314.2,144.9c1.6-0.8,2.8-1.4,4.3-2.2c2.2,4.6,4.4,9,6.5,13.4c0.9,1.9,1.8,3.8,2.7,5.7
		c0.8,1.6,1.7,3.1,3.8,2.1c2-1,1.4-2.6,0.7-4.2c-2.7-5.6-5.3-11.3-8-16.9c-0.3-0.7-0.6-1.5-1-2.4c1.4-0.7,2.6-1.4,4.1-2.2
		c0.5,0.9,1,1.7,1.4,2.5c2.8,5.7,5.5,11.3,8.2,17c2.2,4.7,0.9,8.1-4,10.4c-4.3,2.1-7.6,0.8-9.8-3.7c-2.6-5.5-5.2-11-7.8-16.4
		C315.1,147.1,314.7,146.1,314.2,144.9z"/>
	<path class="st0" d="M355.4,124.4c0.8-0.5,1.3-0.9,1.9-1.2c0.7-0.4,1.4-0.6,2.4-1c2.6,5.5,5.3,10.8,7.8,16.2
		c0.9,1.8,1.7,3.7,2.4,5.6c0.8,2.2,0.2,4.4-1.5,5.7c-1.7,1.3-3.7,2.5-5.8,3.1c-2.7,0.9-5.1-0.5-6.6-3.4c-2.6-5.1-5-10.3-7.5-15.5
		c-0.8-1.6-1.5-3.2-2.2-4.7c0.3-0.3,0.5-0.5,0.7-0.7c3.5-2.1,3.5-2.1,5.3,1.7c2.5,5.2,5,10.5,7.7,15.7c0.5,1,1.5,2,2.5,2.2
		c2,0.4,3.1-1.7,2.2-3.9c-1.6-3.7-3.4-7.3-5.1-11C358.1,130.3,356.8,127.4,355.4,124.4z"/>
	<path class="st0" d="M377.7,121.6c-1.2,0.6-2.5,1.3-3.9,2c-0.5-0.8-0.8-1.8-1.4-2.3c-0.8-0.6-2-1.2-2.9-1c-1.5,0.3-1.9,1.6-1.4,3.1
		c0.6,1.7,1.5,3.2,3.6,3.4c1.9,0.2,3.7,0.6,5.6,0.8c4.3,0.6,8.4,5.6,8.2,10.1c-0.1,1.1-0.5,2.7-1.3,3.2c-2.3,1.6-4.8,3.1-7.4,3.9
		c-2.2,0.7-4.2-0.6-5.3-2.7c-0.7-1.3-1.3-2.7-2.1-4.4c1.5-0.8,2.8-1.5,4.3-2.3c0.7,1.2,1.3,2.3,1.9,3.5c0.8,1.6,1.9,2.1,3.5,1.3
		c1.5-0.8,1.7-2,1.2-3.5c-0.9-2.6-2.2-4.5-5.2-4.5c-1.5,0-3-0.4-4.5-0.7c-4-0.7-6.7-3.6-7.1-7.7c-0.4-3.6,2.9-7.3,7.2-8
		C374.3,115.3,376.7,117.2,377.7,121.6z"/>
	<path class="st0" d="M207.3,98.8c-0.7-2.1-1.3-4.1-2.1-5.9c-1.6-3.8-4-4.5-7.6-2.5c-0.5,0.3-1,0.7-1.7,1.1c-1-2.9-2-5.7-2.9-8.5
		c7.2-6.1,18.8-3.7,22.6,4.7c0.9,2,1.4,4.1,1.9,6.2c0.1,0.5-0.5,1.7-1.1,1.9C213.5,96.9,210.5,97.8,207.3,98.8z"/>
	<path class="st0" d="M324.7,168.7c-1.2,0.7-1.9,1-2.5,1.4c-1.5,1-2.6,0.9-3.4-0.9c-0.8-1.9-1.9-1.8-3.6-1c-1.7,0.8-2.2,1.7-1.5,3.6
		c0.9,2.4,0.5,2.8-4,4.2c-1-4-2.1-7.9-3.1-11.9c-1.3-4.9-2.4-9.8-3.8-14.6c-0.4-1.6,0.4-2.2,1.5-2.5c1.3-0.4,2.5-2.4,3.9-0.5
		C313.8,153.8,319.1,161.1,324.7,168.7z M309.2,154.6c-0.2,0.1-0.4,0.2-0.6,0.3c1,3.3,2.1,6.6,3.2,10.2c1.2-0.6,2.1-1.1,3.2-1.7
		C313,160.3,311.1,157.5,309.2,154.6z"/>
	<path class="st0" d="M212.1,143.6c-8.1,2.6-15.8,0.2-18.4-8.9c-0.7-2.4-1.4-4.8-2.2-7.2c-0.4-1.3-0.1-2.1,1.4-2.4
		c2.4-0.6,4.8-1.4,7.2-2.2c1.1-0.4,1.8-0.1,2.1,1.2c0.5,1.8,1,3.6,1.6,5.3c0.9,2.6,1.5,5.6,5,6.1c0.4,0.1,0.8,0.7,1,1.2
		C210.6,138.9,211.3,141.2,212.1,143.6z"/>
	<path class="st0" d="M31.9,101.5c6.2,9.1,12,17.8,17.9,26.6c-10.1,0.1-14.7-0.6-19.5-10.4c-1.7-3.4-2.8-6.9-1.5-10.6
		C29.5,105.1,30.8,103.4,31.9,101.5z"/>
	<path class="st0" d="M61.1,106.8c-3.2,1.9-6,3.6-9,5.4c-1-1.6-1.8-2.8-2.5-4c-1.8-3.2-4.9-3.8-7.7-1.5c-2.8,2.3-2.8,2.4-4.8-0.8
		c-0.9-1.4-3-2.9-0.9-4.5c2.5-1.9,5.4-3.8,8.3-4.7c5.7-1.8,10.3,0.3,13.6,5.5C59.1,103.5,60,104.9,61.1,106.8z"/>
	<path class="st0" d="M404.9,100.7c0.6,1.3,1.1,2.3,1.6,3.5c-2.5,1.3-4.9,2.6-7.6,4c0.7,1.6,1.4,3.2,2.4,5.3c0.9-1.1,1.3-1.9,2-2.4
		c2.6-2.2,5.8-1.7,7.5,1.3c1.5,2.6,2.8,5.3,3.9,8.1c1.5,3.9-0.2,6.8-4.8,8.4c-3.7,1.4-6.6,0-7.8-4c-0.9-2.9,2-2.1,3.1-3.2
		c0.6,1,0.9,2.1,1.6,2.6c0.7,0.5,1.9,1,2.6,0.7c0.6-0.3,1.3-1.8,1.1-2.4c-1-2.6-2.2-5.1-3.5-7.5c-0.3-0.6-1.5-1.2-2.1-1.1
		c-0.7,0.2-1.8,1.2-1.8,1.9c0,2.1-1.2,2.8-3.2,3.3c-1.9-4.2-3.8-8.4-5.9-12.8C397.7,104.5,401.1,102.7,404.9,100.7z"/>
	<path class="st0" d="M66.1,152.2c-5.2,3.4-10.1,3.6-14.4,0.2c-2-1.6-3.9-3.2-6.2-4.9c0.8,0,1.2,0.1,2,0.1c-1-1.9-1.9-3.6-2.4-4.5
		c0.8-1.2,1.7-2,1.6-2.6c-0.4-1.9,1-2.2,2-2.9c1.2-0.8,2.4-1.5,3.7-2.3c0.6,0.9,1,1.7,1.5,2.4c2.1,2.9,3.5,6,7.1,7.8
		C63.3,146.6,64.5,149.9,66.1,152.2z"/>
	<path class="st0" d="M390,134.9c-1.2-2.5-2.4-5-3.6-7.4c-1.9-4-3.8-8.1-5.7-12.1c-1.3-2.8-1.3-2.8-4-1.5c-0.6,0.3-1.1,0.6-1.9,0.9
		c-0.5-1-1-2-1.6-3.2c4.6-2.3,8.9-4.5,13.5-6.8c0.6,1.2,1.1,2.1,1.6,3.1c-0.3,0.3-0.5,0.5-0.7,0.6c-3.8,2.1-3.8,2.1-1.8,6.2
		c2.5,5.1,4.9,10.2,7.3,15.3c1.4,2.9,1.4,2.8-1.4,4.2C391.3,134.5,390.7,134.6,390,134.9z"/>
</g>
</svg>
