<?xml version="1.0" encoding="utf-8"?>
<!-- Generator: Adobe Illustrator 19.1.1, SVG Export Plug-In . SVG Version: 6.00 Build 0)  -->
<svg version="1.1" id="Calque_1" xmlns="http://www.w3.org/2000/svg" xmlns:xlink="http://www.w3.org/1999/xlink" x="0px" y="0px"
	 viewBox="0 0 289 121" style="enable-background:new 0 0 289 121;" xml:space="preserve">
<g>
	<path d="M238.8,76c0.2,1.3,0.3,2.6,0.4,3.9c0.1,1.3,0.3,2.5,0.2,3.8c0,0.3-0.7,0.8-1.1,0.9c-0.3,0.1-1-0.7-1-0.8
		c0.7-1.1-0.4-1.9-0.6-2.8c-2-10.4-4-20.7-6-31.1c-0.8-4.2-1.6-8.5-2.5-12.7c-0.3-1.3,0-1.9,1.3-2.2c1.8-0.5,3.6-1,5.3-1.6
		c0.8-0.3,1.3-0.2,1.7,0.8c3,5.8,6.1,11.5,9.1,17.2c4.4,8.3,8.7,16.7,13.1,25c0.2,0.4,0.4,0.7,1.1,0.9c-4.8-15.7-9.6-31.3-14.4-47.1
		c5.9-1.8,11.5-3.6,17.2-5c5.3-1.4,10.1,1.4,12.1,7.1c1.9,5.5,3.6,11.1,5.3,16.7c1.3,4.2,2.6,8.4,3.6,12.7c1,4.4-0.9,8.2-4.9,10.4
		c-1,0.5-2.1,1.3-2.6-0.6c-0.1-0.2-0.7-0.3-1.1-0.4c-0.6-0.3-1.1-0.7-1.8-0.9c-0.5-0.1-1.3-0.2-1.5,0c-0.3,0.6-0.5,1.3-0.3,1.9
		c0.1,0.4,0.8,0.6,1.3,1c-3.2,3.2-7.7,3.3-11.5,4.7c-2.6,1-5.4,1.6-8,2.6c-1.8,0.7-2.7,0.2-3.3-1.5c-0.5-1.4-1.3-2.6-1.8-4
		c-0.5-1.3-1.2-1.4-2.4-1.1C243.4,74.6,241.2,75.3,238.8,76z M256.1,34.6c3.5,11.5,7,22.8,10.4,34.2c0.9-0.3,1.6-0.5,2.3-0.8
		c0.8-0.3,1.6-0.5,2.4-0.7c2.9-1,3.8-2.3,3-5.3c-1.5-5.4-3.2-10.7-4.8-16.1c-1-3.3-2-6.6-3.1-9.8c-0.7-2.2-2.1-3.4-3.8-3.1
		C260.4,33.3,258.4,34,256.1,34.6z M235.2,47.7c-0.2,0-0.3,0.1-0.5,0.1c1,6.8,1.9,13.6,2.9,20.6c2.4-0.7,4.4-1.2,6.5-1.8
		C241.1,60.2,238.1,54,235.2,47.7z"/>
	<path d="M215.9,38.7c0.7,2.3,1.4,4.4,2,6.5c2.3,7.7,4.7,15.3,7,23c0.9,3.1,1.9,6.2,2.8,9.3c1.3,4.8-0.1,8.7-4.3,11.6
		c-3.2,2.3-7,3.3-10.8,3.5c-5,0.3-9.1-2.2-10.7-7.1c-4.2-12.8-8-25.7-12.2-39c2.8-0.7,5.5-1.4,8.2-2c0.3-0.1,1,0.7,1.1,1.2
		c2,6.5,4,13,6,19.5c1.6,5.2,3.1,10.5,4.8,15.7c1,3.2,2.8,4,5.7,3.2c2.6-0.8,3.6-2.4,2.9-5.1c-0.8-3-1.8-6-2.7-9
		c-1.9-6.4-3.9-12.8-5.9-19.1c-0.7-2.4-1.5-4.9-2.3-7.3c-0.5-1.3-0.2-2.2,1.2-2.7C211.1,40.2,213.4,39.5,215.9,38.7z"/>
	<path d="M106.4,18.1c2-1.3,4.1-1.9,6.2-1.4c2.7,0.7,5.4,1.4,7.2,3.7c0.4,0.5,0.5,1.2,0.8,1.9c0.1,0.3,0.1,0.8,0.3,1
		c2.8,4.5,5.6,9.1,8.5,13.6c0.3,0.5,1,0.8,1.6,1.2c0.2,0.7,0.4,1.5,0.8,2.2c1,1.9,2.9,3.8,3.1,5.8c0.2,2.2-0.5,4.8-1.7,6.7
		c-1.7,2.6-4.1,4.7-7.5,5.2c-0.8,0.1-1.4,1-2.1,1.5c-1.9,1.2-3.8,2.3-5.6,3.6c-1,0.7-1.5,0.5-2.1-0.5c-4-6.4-8-12.7-12-19.1
		c-3.2-5.1-6.5-10.2-9.7-15.3c-0.4-0.6-0.8-1.3-1.3-2.2c4.2-2.7,8.3-5.3,12.7-8c1,2,1.9,3.8,2.9,5.8c-1.1,0.6-2.1,1.2-3,1.8
		c-2.2,1.4-2.2,2-0.8,4.2c4.6,7.1,9.2,14.2,13.8,21.3c0.6,0.9,1.2,1.8,1.9,2.8c0.8-0.4,1.5-0.7,2.2-1c0.8,1.4,1.7,2.9,2.5,4.3
		c0.2-0.1,0.3-0.1,0.5-0.2c-0.6-1.4-1.2-2.9-1.8-4.4c0.4-0.3,0.8-0.5,1.1-0.8c2.1-1.6,2.5-3.1,1.1-5.3c-4.3-6.9-8.7-13.8-13.1-20.7
		c-0.3-0.4-0.7-0.8-1.1-1c-1.3-0.6-2.7-0.8-3.2-2.5C107.9,20.8,107.1,19.5,106.4,18.1z"/>
	<path d="M48.6,61.8c0.4,0,0.9-0.1,1.3-0.1c0-0.1,0-0.3,0-0.4c-0.6-0.1-1.1-0.2-2-0.4c2-1.4,3.9-2.6,6.1-4c1.3,1.8,2.5,3.5,3.7,5.2
		c2.7,4.2,5.4,8.5,8.1,12.8c2.3,3.5,4.5,7.1,6.8,10.6c0.2,0.3,0.8,0.4,1.1,0.7c0.2,0.1,0.4,0.2,0.4,0.3c0,3.4,2,6.8-0.3,10.1
		c-3.2,4.4-7.4,7.3-12.8,7.6c-1.8,0.1-4-0.7-5.5-1.8c-2.7-1.9-5-4.4-7.8-6.9c0.9-0.3,1.2-0.5,1.8-0.7C44.5,86.4,39.3,78,34,69.5
		c2.3-1.4,4.5-2.8,6.7-4.2c4.5,7.1,8.8,13.9,13.2,20.8c1.8,2.8,3.5,5.6,5.4,8.3c1.6,2.4,3.3,2.7,5.4,1.4c2.2-1.4,2.5-2.9,1.1-5.4
		c-2-3.3-4-6.6-6.1-9.9c-2.2-3.6-4.7-7.1-6.6-10.9c-0.7-1.4-2.7-2.3-1.9-4.4c0-0.1-0.3-0.4-0.4-0.6c-0.9-0.7-1.7-1.5-2.6-2.2
		C48.3,62.2,48.5,62,48.6,61.8z"/>
	<path d="M142.8,30.2c2.6,4.1,5.1,8.1,7.8,12.3c4.2-2.6,8.2-5.2,12.5-7.8c1.3,2.1,2.5,4,3.9,6.1c-6.7,4.2-13.2,8.3-19.6,12.3
		c-4.5-6.3-8.9-12.6-13.3-18.8c0.1-0.1,0.1-0.1,0.2-0.2c0.3,0.6,0.6,1.2,0.9,1.8c0.2-0.2,0.4-0.3,0.6-0.5
		c-4.6-7.2-9.2-14.5-13.9-21.9c6.5-4.1,12.9-8.1,19.4-12.2c1.2,1.8,2.3,3.5,3.3,5.3c0.2,0.3-0.3,1.3-0.7,1.5
		c-2.9,1.9-5.9,3.7-8.9,5.6c-0.6,0.4-1.2,0.7-1.8,1.2c2,3.1,3.9,6.1,5.9,9.3c3.7-2.3,7.4-4.6,11.3-7c1.3,2,2.5,3.9,3.8,6
		C150.2,25.5,146.6,27.8,142.8,30.2z"/>
	<path d="M183.1,85c0,0.8,0,1.5,0,2.3c0,0.5-0.1,0.9-0.1,1.4l0.1-0.1c-0.4-0.6-0.7-1.3-1.1-1.9c-0.4-0.5-0.7-1.3-1.2-1.5
		c-1.4-0.6-2,0.3-2.3,1.5l0,0.1c-0.8-0.9-1.2-2.4-3-1.8c-0.1,0.5-0.3,1.1-0.4,1.7c-0.9-0.6-1.7-1.2-2.6-1.6
		c-1.1-0.5-2.1-1.9-3.3-0.3c-2.1-3.9-4.9-14.5-4.2-15.4c-3.4-3.2-3.7-10.2-0.4-13.6c4.6-4.7,10.4-6.3,16.7-5.6
		c4.6,0.5,7,3.7,8.3,7.9c1.2,4,2.6,8,3.6,12.1c0.5,2.2,1.4,4.5,0.2,6.8c-0.7,1.4-1.1,2.8-3.1,3.1c-1,0.2-2.4,1.3-2.7,2.2
		c-0.7,1.8-2,2.2-3.6,2.5C183.6,84.7,183.3,84.9,183.1,85c0.2-1,0.4-2.1,1-3.1c1.3-2.5,0.8-3.8-2.5-4.9
		C182.1,79.8,182.6,82.4,183.1,85z M177.5,62.7c-3.6,0.7-3.2,4.4-5.3,6.3c-2-1.8-4-3.5-6-5.3c-1.2,1.4-0.8,3.3,0.6,4.5
		c1.4,1.1,2.8,2.4,4.1,3.5c-2.8,4.9-3,6.2-1,8.2c1-2.2,1.9-4.3,2.8-6.4c2,1.2,3.7,2.3,5.5,3.4c0.2-0.1,0.4-0.1,0.6-0.2
		c-0.2-0.8-0.2-1.6-0.6-2.2c-0.6-0.9-1.4-1.8-2.3-2.5c-0.9-0.8-1.2-1.5-0.7-2.7C175.9,67.2,176.6,65,177.5,62.7z M188.1,61.3
		c-0.2,0-0.4-0.1-0.6-0.1c-0.2,0.3-0.5,0.6-0.6,0.9c-0.8,1.8-1.4,1.9-2.9,0.6c-0.7-0.5-1.5-1-2.2-1.3c-0.2-0.1-0.9,0.1-1,0.2
		c-0.3,1.2-0.6,2.3-0.5,3.5c0,0.4,1.2,0.8,1.8,1.1c0.6,0.3,1.3,0.6,1.8,0.8c-0.9,3-1.7,5.9-2.5,8.7c0.2,0.1,0.4,0.2,0.7,0.3
		c1.4-2.7,2.8-5.3,4.3-8.1c1.8,0.8,3.5,1.6,5.2,2.5c0.2-0.2,0.3-0.5,0.5-0.7c-0.9-0.7-1.8-1.5-2.7-2.1c-1.4-0.9-2.4-1.9-1.7-3.8
		C188.1,63,188,62.1,188.1,61.3z M180.7,77.4c-1,0.8-2,1.5-1.3,3c0.5,1,1.1,2,1.7,3.1C182.4,83.1,182.4,80.3,180.7,77.4z"/>
	<path d="M94.1,53.6c-2.1,1.3-4,2.5-6.1,3.8c-1.1-1.7-2.1-3.3-3.2-4.9c-1.6-2.4-3.2-2.8-5.3-1.5c-2.1,1.3-2.6,3.1-1.1,5.4
		c4,6.4,8,12.7,12.2,19c1.8,2.8,3.4,3,5.9,1.3c1.5-1.1,1.8-2.4,0.9-4c-1.1-2-2.4-4-3.7-6.3c2-1.3,4-2.5,6.2-3.9
		c1.5,2.6,3.2,4.9,4.4,7.5c1.7,3.7,0.7,7.2-2.5,9.8c-3.3,2.6-6.7,4.9-11.6,4.5c0.6,0.7,0.9,1.1,1.3,1.6c-0.1,0.1-0.2,0.2-0.3,0.4
		c-2.1-1.9-4.5-3.5-6.1-5.8c-2.2-3.1-4.5-6.2-6.4-9.6c-1-1.8-1.8-3.8-3.1-5.5c-1.3-1.8-2.4-3.7-3.5-5.7c-2.4-4.3-2.2-7.8,1.4-11
		c2.3-2,5.2-3.6,8.1-4.8c3.3-1.3,6.2,0.1,8.6,3.3C91.5,49.3,92.7,51.3,94.1,53.6z"/>
	<path d="M183,88.6c0.4-0.1,0.8-0.2,1.6-0.5c-0.5,1.3-0.9,2.2-1.2,2.9c-1.4-0.1-2.5-0.1-3.8-0.2c-0.7-0.9-0.7-0.9-4-0.5
		c1.8,3,4.8,3.3,7.6,4.2c0-0.4,0-0.7,0-1c0-0.3-0.2-0.6-0.3-1.1c0.6,0.2,0.9,0.4,1.4,0.5c0.3-1,0.5-1.9,0.8-2.9c0.1,0,0.2,0,0.4,0
		c0.1,0.6,0.2,1.1,0.3,1.8c1.4-0.7,2.5-1.5,1.4-3.5c0.7,0.2,1.2,0.3,1.6,0.4c0.5-2.3,2.9-4.1,1.4-6.8c0.7,0.5,1.4,1.1,2.1,1.5
		c0.3,0.2,0.8,0.3,1.2,0.4c0-0.4,0.1-0.9,0-1.3c-0.1-0.4-0.4-0.7-0.2-1.3c0.4,0.3,0.7,0.8,1.1,0.9c0.3,0.1,0.8-0.1,1.1-0.2
		c0.1,0-0.1-0.6-0.2-0.9c-0.2-0.7-0.4-1.4-0.7-2.1c0.2-0.1,0.4-0.2,0.7-0.3c0.3,0.6,0.8,1.2,0.9,1.8c0.9,3.5,2.8,6.9,2.3,10.7
		c0,0.3,0.4,0.8,0.7,0.9c0.7,0.4,1.4,0.8,2.1,0.9c6.3,1.1,5.8,6.6,7.5,11.3c-3.4-1.3-6.3-2.4-9.1-3.5c-0.8-0.3-1.7-0.5-2.5-1
		c-3-2.1-5.7-1.1-8.4,0.5c-4.3,2.5-11.2,1.8-14.7-1.5c-1.1-1-1.7-2.5-2.3-3.9c-0.9-2.3-1.5-4.7-1.9-7.5c0.7,0.4,1.5,0.7,2.1,1.1
		c0.8,0.6,1.3,1.4,2.6,0.6c0.8-0.5,2-0.3,2.8-0.3c0.3-0.9,0.5-1.5,0.8-2.2l0-0.1c0.1,0.2,0.3,0.4,0.4,0.6c0.4,3.1,1.2,3.7,4.4,3.1
		C183.1,89.7,183.1,89.1,183,88.6L183,88.6z"/>
	<path d="M158.7,95.7c-0.7-1.8-1.5-3.6-2.5-6.2c-1-0.4-2.9-1-4.8-1.7c-0.5-0.2-1.1-0.4-1.2-0.7c-1.2-3.2-2.3-6.4-3.6-9.9
		c3.6,1.2,6.7,2.1,9.8,3.2c2.3,0.8,4.5,1.7,6.6,2.7c0.7,0.3,1.5,0.9,1.9,1.5c3.2,4.7,4.9,10,4.6,15.7c-0.1,3.2-2.2,5.4-4.9,6.8
		c-1.9,1.1-4.1,1.8-6.3,2.8c-0.9-2.3-1.7-4.3-2.5-6.5c0.6-0.3,1.2-0.5,1.7-0.7c2.3-0.9,2.4-1.3,1.7-3.5
		C158.7,98,158.8,96.8,158.7,95.7c0.3,0.1,0.6,0.2,1.5,0.5c-0.8-2-1.4-3.5-2.1-5.1c-0.1,0.1-0.2,0.1-0.3,0.2
		C158.2,92.7,158.4,94.2,158.7,95.7z"/>
	<path d="M40.5,116.6c-1.5-2.2-2.7-4-3.9-5.7c0.1-0.2,0.2-0.4,0.3-0.5c4.6-2.3,4.8-3.5,2.5-8c-1.8-3.4-4.3-5.3-8.2-4.9
		c-3.1,0.3-4.9-1-6.2-3.6c-0.8-1.6-2-3-3.3-5c2.6,0.1,4.7,0.3,6.8,0.4c3.9,0.3,8-0.5,11.6,1.5c1.2,0.6,2.5,1.4,3.3,2.4
		c1.8,2.4,3.4,4.9,4.8,7.6c2,3.7,1.6,7.4-1.4,10.4C45.1,113.1,42.8,114.7,40.5,116.6z"/>
	<path d="M78.6,89.9c-3.9-5.5-6.5-11.6-10.2-17c-3.8-5.6-7.2-11.5-10.9-17.4c0.8-0.5,1.4-1,2.1-1.4c4.4-2.6,3.4-3.1,6.4,1.6
		c3.9,6,7.8,12.1,11.7,18.1c2.3,3.6,4.7,7.3,6.9,11c0.2,0.4,0.1,1.5-0.2,1.7C82.6,87.7,80.7,88.7,78.6,89.9z"/>
	<path d="M88.1,40c1.4-0.9,2.6-1.8,3.9-2.5c1.4-0.8,3.1,0,4.1,1.6c4.5,7.1,8.9,14.2,13.4,21.3c2.1,3.3,4.2,6.5,6.4,9.9
		c-2.1,1.3-4.1,2.5-6.2,3.9C102.5,62.8,95.3,51.5,88.1,40z"/>
	<path d="M135.9,60c0.1,0.5,0.1,0.8,0.1,1.2c0.2,0.1,0.3,0.2,0.5,0.3c0.5-0.8,1.1-1.6,1.6-2.5c0.5,0.1,1.3,0.3,1.7,0.4
		c0.5,1.9,1.1,3.9,1.5,5.8c0.2,0.8,0.1,1.6,0.2,2.4c0.5,2.2,0.5,4.8,1.8,6.4c1.5,1.9,2.5,3.9,3.2,6.1c0.6,1.8,1.2,3.6,2,5.8
		c-3.6-1-7-1.8-10.5-2.8c0.4-0.1,0.6-0.2,1.1-0.4c-4-2.3-5-6.3-6.5-10.1c-1.3-3.2-0.8-5.8,1-8.5C134.5,63,135.1,61.5,135.9,60z"/>
	<path d="M230.7,86.3c-0.5-5-1-9.8-1.5-14.6c-1-9-2-18.1-3-27.1c-0.3-2.5-0.6-4.9-0.7-7.4c0-0.6,0.6-1.3,0.9-1.9
		c0.2,0.1,0.5,0.1,0.7,0.2c0.7,3.4,1.3,6.8,2,10.2c1.9,9.9,3.8,19.7,5.8,29.6c0.5,2.7,1,5.5,1.6,8.2c0.2,1-0.1,1.5-1.2,1.7
		C233.8,85.5,232.3,85.9,230.7,86.3z"/>
	<path d="M152.4,73.3c-0.6-1.7-1-3.2-1.7-4.6c-1.3-3-3.3-3.6-6.1-1.9c-0.4,0.2-0.8,0.5-1.4,0.9c-0.8-2.3-1.6-4.5-2.4-6.6
		c5.8-4.8,15.2-2.9,18.3,3.7c0.7,1.5,1.2,3.2,1.5,4.9c0.1,0.4-0.4,1.3-0.9,1.5C157.5,71.8,155,72.5,152.4,73.3z"/>
	<path d="M156.3,108.4c-6.5,2.1-12.8,0.1-14.9-7c-0.6-1.9-1.2-3.8-1.8-5.6c-0.3-1-0.1-1.6,1.1-1.9c2-0.5,3.9-1.1,5.9-1.7
		c0.9-0.3,1.4,0,1.7,0.9c0.4,1.4,0.8,2.8,1.3,4.2c0.7,2.1,1.2,4.4,4,4.8c0.3,0,0.7,0.6,0.8,0.9C155.1,104.7,155.7,106.5,156.3,108.4
		z"/>
	<path d="M10.6,75.4c5,7.1,9.7,13.9,14.5,20.8c-8.1,0.1-11.9-0.5-15.8-8.1c-1.4-2.7-2.3-5.4-1.2-8.3C8.6,78.2,9.7,76.9,10.6,75.4z"
		/>
	<path d="M34.3,79.5c-2.5,1.5-4.9,2.8-7.2,4.2c-0.8-1.2-1.5-2.2-2-3.2c-1.5-2.5-4-3-6.2-1.1c-2.2,1.8-2.3,1.9-3.9-0.6
		c-0.7-1.1-2.4-2.3-0.7-3.5c2.1-1.5,4.3-3,6.8-3.7c4.6-1.4,8.4,0.2,11,4.3C32.6,77,33.3,78.1,34.3,79.5z"/>
	<path d="M38.3,115.1c-4.2,2.7-8.1,2.8-11.6,0.2c-1.6-1.2-3.2-2.5-5-3.9c0.6,0,1,0,1.7,0.1c-0.8-1.5-1.6-2.8-1.9-3.5
		c0.6-1,1.4-1.6,1.3-2c-0.3-1.5,0.8-1.7,1.6-2.3c1-0.6,1.9-1.2,3-1.8c0.5,0.7,0.8,1.3,1.2,1.9c1.7,2.2,2.8,4.7,5.7,6.1
		C36,110.7,37,113.3,38.3,115.1z"/>
</g>
</svg>
